<svg id="Layer_1" data-name="Layer 1" xmlns="http://www.w3.org/2000/svg" xmlns:xlink="http://www.w3.org/1999/xlink" viewBox="0 0 841.89 595.28"><defs><style>.cls-1,.cls-4{fill:#fff;}.cls-1,.cls-21{fill-rule:evenodd;}.cls-2{fill:#aeffda;}.cls-3,.cls-49{fill:none;}.cls-5{clip-path:url(#clip-path);}.cls-6{opacity:0.3;}.cls-7{opacity:0.9;}.cls-8{fill:#b2bbf0;}.cls-51,.cls-9{fill:#7081e5;}.cls-10,.cls-29,.cls-41,.cls-47{font-size:10px;}.cls-10,.cls-21,.cls-26,.cls-29,.cls-41{fill:#2b2b2b;}.cls-10,.cls-29,.cls-46{font-family:IBMPlexSans, IBM Plex Sans;}.cls-11{letter-spacing:-0.01em;}.cls-12{letter-spacing:-0.01em;}.cls-13{letter-spacing:0em;}.cls-14{letter-spacing:0em;}.cls-15{letter-spacing:-0.02em;}.cls-16{letter-spacing:-0.05em;}.cls-17{letter-spacing:-0.01em;}.cls-18{letter-spacing:0em;}.cls-19,.cls-29,.cls-47{opacity:0.75;}.cls-20{mask:url(#mask);}.cls-22{fill:#2c2c2c;}.cls-23{clip-path:url(#clip-path-2);}.cls-24{clip-path:url(#clip-path-3);}.cls-25{clip-path:url(#clip-path-4);}.cls-26{font-size:18px;font-family:IBMPlexMono-Bold, IBM Plex Mono;}.cls-26,.cls-41,.cls-42,.cls-47{font-weight:700;}.cls-27{letter-spacing:0em;}.cls-28{letter-spacing:0em;}.cls-30{letter-spacing:-0.01em;}.cls-31{letter-spacing:0em;}.cls-32{letter-spacing:0.01em;}.cls-33{letter-spacing:0em;}.cls-34{letter-spacing:0em;}.cls-35{letter-spacing:-0.01em;}.cls-36{letter-spacing:-0.01em;}.cls-37{letter-spacing:-0.03em;}.cls-38{letter-spacing:-0.05em;}.cls-39{letter-spacing:-0.01em;}.cls-40{letter-spacing:-0.01em;}.cls-41,.cls-42,.cls-47{font-family:IBMPlexSans-Bold, IBM Plex Sans;}.cls-42{font-size:24px;}.cls-43{letter-spacing:-0.01em;}.cls-44{letter-spacing:0em;}.cls-45{letter-spacing:0em;}.cls-46{font-size:12px;}.cls-48{letter-spacing:-0.01em;}.cls-49{stroke:#fff;stroke-miterlimit:10;}.cls-50{letter-spacing:0em;}.cls-51{font-size:33.9px;font-family:GreatVibes-Regular, Great Vibes;}</style><clipPath id="clip-path"><rect class="cls-2" x="28.91" y="28.35" width="784.07" height="538.58" rx="56.32"/></clipPath><mask id="mask" x="716.6" y="76.43" width="68.15" height="17.97" maskUnits="userSpaceOnUse"><g id="mask-2"><polygon id="path-1" class="cls-1" points="716.6 76.43 784.75 76.43 784.75 94.4 716.6 94.4 716.6 76.43"/></g></mask><clipPath id="clip-path-2"><rect class="cls-3" x="360.19" y="113.02" width="117.24" height="34.23" rx="4.28"/></clipPath><clipPath id="clip-path-3"><rect class="cls-3" x="360.19" y="112.29" width="134.35" height="39.36"/></clipPath><clipPath id="clip-path-4"><rect class="cls-3" x="364.47" y="117.3" width="117.24" height="34.23" rx="4.28"/></clipPath></defs><title>Certificate</title><rect class="cls-4" width="841.89" height="595.28"/><rect class="cls-2" x="28.91" y="28.35" width="784.07" height="538.58" rx="56.32"/><g class="cls-5"><g class="cls-6"><path class="cls-4" d="M57.73,581.77c-24.82-25.1-34.48-60.72-29-95.28l-1.44,1.44c27.07-4.29,55.36.48,78.53,15.45a103.82,103.82,0,0,1,43.65,60.7,117.29,117.29,0,0,1,2.1,48.13l1.44-1.44c-34.55,5.48-70.18-4.19-95.27-29-1.89-1.87-4.81,1-2.92,2.91,26.22,25.93,63.24,35.78,99.29,30.07a2,2,0,0,0,1.44-1.44c4.46-28.16-.27-57.57-15.87-81.71A108.14,108.14,0,0,0,75.9,485.9,122.54,122.54,0,0,0,26.18,484a2,2,0,0,0-1.44,1.44c-5.71,36.05,4.15,73.07,30.07,99.29C56.68,586.57,59.59,583.66,57.73,581.77Z"/><path class="cls-4" d="M190,428c25.09-24.82,60.72-34.48,95.28-29l-1.44-1.44c4.28,27.07-.48,55.37-15.46,78.53a103.77,103.77,0,0,1-60.69,43.65,117.52,117.52,0,0,1-48.14,2.11l1.44,1.44c-5.47-34.56,4.19-70.19,29-95.28,1.87-1.89-1.05-4.81-2.92-2.92-25.92,26.22-35.77,63.24-30.07,99.29a2,2,0,0,0,1.44,1.44c28.16,4.46,57.57-.26,81.72-15.87a108.18,108.18,0,0,0,45.7-63.77,122.54,122.54,0,0,0,1.94-49.72,2,2,0,0,0-1.44-1.44c-36.05-5.7-73.07,4.15-99.29,30.07C185.19,427,188.11,429.88,190,428Z"/><path class="cls-4" d="M182.25,272.1C201,253.66,227.3,246.5,253,250.53l-1.44-1.44c4,25.57-3.05,52.26-21.57,70.78s-45.2,25.57-70.78,21.57l1.44,1.44c-4-25.73,3.14-52.08,21.57-70.78,1.87-1.9-1.05-4.81-2.91-2.92C159.8,289,152.44,316.76,156.71,344a2,2,0,0,0,1.44,1.44c21.2,3.33,43.29-.15,61.49-11.9A81.44,81.44,0,0,0,254,285.79a92.64,92.64,0,0,0,1.54-37.8,2,2,0,0,0-1.44-1.44c-27.22-4.26-55,3.1-74.79,22.63C177.44,271.05,180.36,274,182.25,272.1Z"/><path class="cls-4" d="M83.61,409.54C65.18,390.83,58,364.49,62,338.76L60.6,340.2c25.57-4,52.25,3.05,70.78,21.57S157,407,153,432.55l1.44-1.44c-25.73,4-52.07-3.14-70.78-21.57-1.89-1.86-4.81,1-2.92,2.92,19.83,19.53,47.58,26.89,74.79,22.63a2,2,0,0,0,1.44-1.44c3.33-21.24-.16-43.36-11.95-61.58a81.45,81.45,0,0,0-48.38-34.49,92.88,92.88,0,0,0-37.09-1.35,2,2,0,0,0-1.44,1.44c-4.25,27.21,3.1,55,22.63,74.79C82.56,414.35,85.47,411.44,83.61,409.54Z"/><path class="cls-4" d="M176.15,98.85C191.21,84.06,212.28,78.31,233,81.51l-1.44-1.44c3.18,20.54-2.45,42-17.34,56.83s-36.26,20.52-56.83,17.34l1.44,1.44c-3.2-20.69,2.55-41.77,17.34-56.83,1.86-1.9-1.06-4.81-2.92-2.92-15.89,16.19-21.83,38.65-18.39,60.84a2,2,0,0,0,1.44,1.44c22,3.42,44.84-2.39,60.84-18.39S238.93,101,235.51,79a2,2,0,0,0-1.44-1.44c-22.19-3.44-44.65,2.5-60.84,18.39C171.33,97.79,174.25,100.71,176.15,98.85Z"/><path class="cls-4" d="M116.83,66.57c-9.89-10.16-13.74-24.13-11.64-38L103.75,30c13.78-2.08,28.07,1.65,38.06,11.63s13.71,24.27,11.63,38.05l1.44-1.44c-13.93,2.1-27.89-1.74-38-11.63-1.91-1.85-4.82,1.06-2.92,2.91,11.3,11,26.64,15,42.06,12.7a2,2,0,0,0,1.44-1.44c2.31-15.26-1.59-31-12.69-42.07s-26.8-15-42.06-12.69a2,2,0,0,0-1.44,1.44c-2.33,15.43,1.7,30.77,12.69,42.06C115.76,71.39,118.68,68.47,116.83,66.57Z"/><path class="cls-4" d="M97.68,223.59c-14.79-15.06-20.54-36.14-17.33-56.83l-1.44,1.44c20.53-3.18,42,2.44,56.83,17.33s20.52,36.27,17.33,56.84l1.44-1.44c-20.69,3.2-41.77-2.55-56.83-17.34-1.89-1.86-4.81,1-2.91,2.92,16.19,15.89,38.65,21.83,60.84,18.39a2,2,0,0,0,1.44-1.44c3.41-22-2.4-44.84-18.4-60.84s-38.81-21.81-60.84-18.4a2,2,0,0,0-1.44,1.44c-3.44,22.19,2.5,44.66,18.4,60.85C96.63,228.4,99.54,225.49,97.68,223.59Z"/><rect class="cls-4" x="153.66" y="0.83" width="8.97" height="683.78" rx="4.48" transform="translate(316.29 685.45) rotate(-180)"/></g><g class="cls-6"><path class="cls-4" d="M790,370.1c18.16-18.48,25-44.15,21-69.49a2.21,2.21,0,0,0-1.61-1.61c-25.15-3.91-51.22,2.75-69.49,21s-24.92,44.34-21,69.5a2.23,2.23,0,0,0,1.61,1.61c25.34,3.93,51-2.86,69.49-21,2.12-2.08-1.14-5.34-3.26-3.26-17.22,16.92-41.34,23.51-65,19.83l1.6,1.61c-3.64-23.48,2.8-48,19.83-65s41.49-23.47,65-19.82l-1.61-1.61c3.67,23.66-2.91,47.78-19.83,65C784.69,369,788,372.22,790,370.1Z"/><path class="cls-4" d="M698.6,258.54c-18.49-18.16-44.16-25-69.5-21a2.21,2.21,0,0,0-1.61,1.61c-3.9,25.16,2.75,51.22,21,69.49s44.34,24.92,69.5,21a2.23,2.23,0,0,0,1.61-1.61c3.93-25.33-2.86-51-21-69.49-2.09-2.12-5.35,1.14-3.26,3.26,16.91,17.22,23.5,41.34,19.82,65l1.61-1.61c-23.48,3.64-48-2.8-65-19.83s-23.47-41.49-19.82-65L630.33,242c23.66-3.67,47.78,2.91,65,19.83C697.45,263.88,700.72,260.62,698.6,258.54Z"/><path class="cls-4" d="M704,150.76C689.89,137,670.63,132,651.39,134.89a2.23,2.23,0,0,0-1.61,1.61c-2.9,19.07,2,38.69,15.87,52.56s33.51,18.77,52.56,15.87a2.23,2.23,0,0,0,1.61-1.61c2.93-19.24-2.13-38.5-15.87-52.56-2.08-2.13-5.34,1.13-3.26,3.26,12.5,12.8,17.36,30.51,14.68,48.07l1.61-1.61c-17.39,2.65-35.47-2.08-48.07-14.68s-17.33-30.68-14.68-48.08l-1.61,1.61c17.56-2.67,35.27,2.19,48.07,14.69C702.81,156.09,706.08,152.84,704,150.76Z"/><path class="cls-4" d="M772.14,251.05C785.88,237,791,217.71,788,198.49a2.23,2.23,0,0,0-1.61-1.61c-19.06-2.91-38.69,2-52.56,15.87S715.06,246.28,718,265.31a2.23,2.23,0,0,0,1.61,1.61c19.22,2.94,38.5-2.14,52.56-15.87,2.13-2.08-1.13-5.34-3.26-3.26-12.79,12.5-30.53,17.36-48.07,14.68l1.61,1.61c-2.66-17.38,2.08-35.47,14.68-48.07s30.69-17.34,48.08-14.68l-1.61-1.61c2.67,17.54-2.19,35.28-14.69,48.07C766.81,249.91,770.06,253.18,772.14,251.05Z"/><path class="cls-4" d="M708.17,31C696.62,19.78,681,15.69,665.25,18.05a2.24,2.24,0,0,0-1.61,1.61c-2.33,15.58,1.62,31.59,13,42.92s27.33,15.28,42.91,12.94a2.2,2.2,0,0,0,1.61-1.61c2.37-15.75-1.72-31.37-12.94-42.91-2.07-2.13-5.33,1.13-3.26,3.26,10,10.27,13.87,24.35,11.76,38.43l1.61-1.61c-13.92,2.08-28.35-1.68-38.43-11.76S666,34.81,668.09,20.89l-1.61,1.61c14.08-2.11,28.15,1.77,38.43,11.76C707,36.33,710.3,33.07,708.17,31Z"/><path class="cls-4" d="M749.18,14c7.83-8.17,10.59-18.85,9-29.94a2.21,2.21,0,0,0-1.61-1.6c-10.88-1.57-22,1-29.94,9s-10.57,19-9,29.93A2.23,2.23,0,0,0,719.24,23c11.08,1.59,21.76-1.17,29.94-9,2.14-2.06-1.12-5.32-3.26-3.26a29.94,29.94,0,0,1-25.45,7.81l1.61,1.61C719.2.12,735.34-16,755.34-13.14l-1.61-1.61a29.93,29.93,0,0,1-7.81,25.45C743.86,12.84,747.12,16.11,749.18,14Z"/><path class="cls-4" d="M762.41,122.5c11.22-11.54,15.31-27.16,12.94-42.91A2.2,2.2,0,0,0,773.74,78c-15.57-2.34-31.58,1.61-42.91,12.94s-15.28,27.34-12.94,42.92a2.21,2.21,0,0,0,1.61,1.61c15.75,2.36,31.37-1.73,42.91-12.95,2.13-2.07-1.13-5.33-3.26-3.26-10.27,10-24.35,13.87-38.43,11.76l1.61,1.61c-2.09-13.92,1.68-28.35,11.76-38.43s24.51-13.84,38.43-11.76l-1.61-1.6c2.11,14.07-1.77,28.15-11.76,38.42C757.08,121.37,760.34,124.64,762.41,122.5Z"/><rect class="cls-4" x="714.88" y="-34.12" width="6.2" height="472.68" rx="3.1"/></g></g><g class="cls-7"><rect class="cls-8" x="344.21" y="448.36" width="11.19" height="39.7" transform="translate(-200.56 271.53) rotate(-33.57)"/><path d="M365.17,481.19l-9.32,6.18.73.2-19.19-28.93-2.76-4.15-.19.74,9.32-6.19-.74-.19,19.2,28.92,2.76,4.15c.38.58,1.31,0,.92-.54l-19.19-28.93L344,448.3a.54.54,0,0,0-.73-.19l-9.33,6.19a.54.54,0,0,0-.19.73L352.9,484l2.75,4.15a.55.55,0,0,0,.74.19l9.32-6.18C366.29,481.74,365.75,480.8,365.17,481.19Z"/><path class="cls-8" d="M376.27,473.08l-34,20.3s11.31,8.23,19.88,12.19a100.91,100.91,0,0,0,14.13,4.78l8.83-6.58Z"/><path d="M376,472.62,346.22,490.4,342,492.91a.55.55,0,0,0,0,.93,124.67,124.67,0,0,0,19.22,11.89,80.44,80.44,0,0,0,12.9,4.59c.67.19,1.73.72,2.43.49a8.27,8.27,0,0,0,1.89-1.4l6.94-5.17a.56.56,0,0,0,.25-.61l-7.75-26.88-1.1-3.81a.54.54,0,0,0-1,.29l7.75,26.88,1.09,3.81.25-.61-5.53,4.12a19.6,19.6,0,0,0-3,2.2c-.32.36-.36.15,0,.18a7.91,7.91,0,0,1-1.35-.36,83.2,83.2,0,0,1-12.59-4.34,102,102,0,0,1-12.35-7.06c-2.55-1.65-5.07-3.35-7.53-5.14v.93l29.79-17.78,4.21-2.51A.54.54,0,0,0,376,472.62Z"/><polygon class="cls-8" points="387.11 511.76 378.36 518.42 376.29 510.35 385.12 503.77 387.11 511.76"/><path d="M386.84,511.3,378.09,518l.79.32-2.07-8.06-.25.6,8.83-6.57-.79-.32,2,8a.54.54,0,0,0,1-.28l-2-8a.54.54,0,0,0-.79-.32L376,509.88a.57.57,0,0,0-.25.61l2.07,8.07a.54.54,0,0,0,.79.32l8.75-6.65C387.92,511.81,387.39,510.88,386.84,511.3Z"/><path class="cls-8" d="M378.36,518.42a56.91,56.91,0,0,1-35.72-24.86"/><path d="M378.5,517.9a56.77,56.77,0,0,1-33.82-22.21c-.55-.78-1.1-1.57-1.57-2.4a.54.54,0,0,0-.93.54c4.79,8.42,13.17,15.41,21.61,19.86a57.43,57.43,0,0,0,14.42,5.25c.68.14,1-.89.29-1Z"/><polygon class="cls-9" points="332.67 526.45 323.73 526.54 323.73 504.52 424.71 504.52 424.71 526.54 416.7 526.45 398.33 585.49 351.02 585.49 332.67 526.45"/><path d="M332.67,525.91l-8.94.09.53.54v-22l-.53.54h101l-.54-.54v22l.54-.54-8-.09a.55.55,0,0,0-.52.4L410,546.24,400.08,578l-2.27,7.32.52-.4H351l.52.4-6.2-19.94-9.88-31.78-2.27-7.32c-.21-.66-1.25-.38-1,.28l6.2,19.94,9.88,31.78,2.27,7.32a.56.56,0,0,0,.52.4h47.31a.54.54,0,0,0,.51-.4l6.21-19.93,9.89-31.79,2.27-7.32-.51.4,8,.08a.54.54,0,0,0,.54-.53v-22a.55.55,0,0,0-.54-.54h-101a.55.55,0,0,0-.54.54v22a.53.53,0,0,0,.54.53l8.94-.08A.54.54,0,0,0,332.67,525.91Z"/><path class="cls-4" d="M385.36,543.4c-.36-.12-.73-.24-1.1-.34.06-.25.12-.51.17-.76.84-4.06.29-7.33-1.58-8.41s-4.72,0-7.68,2.62c-.29.25-.58.51-.86.78-.18-.18-.37-.35-.57-.52-3.1-2.76-6.21-3.92-8.07-2.84s-2.33,4.12-1.57,8c.07.38.16.76.25,1.13-.44.13-.86.26-1.27.4-3.64,1.27-6,3.26-6,5.32s2.5,4.26,6.28,5.56l.93.29q-.15.6-.27,1.23c-.72,3.78-.16,6.78,1.63,7.81s4.94,0,7.95-2.66l.72-.66c.3.29.61.57.93.85,2.92,2.51,5.8,3.52,7.58,2.49s2.45-4.29,1.67-8.22c-.06-.3-.13-.61-.21-.92l.64-.2c3.94-1.3,6.5-3.41,6.5-5.57s-2.4-4.07-6.11-5.35Z"/><path class="cls-9" d="M384.51,552.93l-.58.18a33.11,33.11,0,0,0-1.74-4.35,33.37,33.37,0,0,0,1.67-4.29c.36.1.7.21,1,.32,3.17,1.1,5.11,2.71,5.11,4s-2.09,3-5.49,4.18Zm-1.41,2.79a12.48,12.48,0,0,1,.16,4.54,3,3,0,0,1-1.12,2.13c-1.08.63-3.4-.19-5.89-2.34-.29-.24-.58-.51-.87-.78a33.58,33.58,0,0,0,2.88-3.66,34.39,34.39,0,0,0,4.65-.72c.07.29.13.56.19.83Zm-14.27,6.56a3,3,0,0,1-2.41.09c-1.08-.62-1.53-3-.92-6.27.08-.38.16-.76.25-1.14a35.74,35.74,0,0,0,4.63.67,36.14,36.14,0,0,0,2.95,3.64c-.21.21-.43.41-.65.6a12.3,12.3,0,0,1-3.85,2.41Zm-4.95-9.36a12.41,12.41,0,0,1-4-2.13,3,3,0,0,1-1.28-2c0-1.25,1.86-2.85,5-3.93.39-.14.79-.26,1.19-.37a35.25,35.25,0,0,0,1.67,4.34,34.62,34.62,0,0,0-1.69,4.4C364.44,553.1,364.16,553,363.88,552.92Zm1.66-11.31c-.65-3.29-.22-5.78.86-6.41s3.69.29,6.37,2.66l.51.48a35.68,35.68,0,0,0-2.92,3.62,36.5,36.5,0,0,0-4.59.71c-.08-.35-.16-.7-.23-1.06Zm14.81,3.66c-.33-.58-.68-1.15-1-1.71a30.83,30.83,0,0,1,3.13.54,28.6,28.6,0,0,1-1.1,3c-.31-.6-.64-1.2-1-1.79Zm-6-5.88a28.48,28.48,0,0,1,2,2.44,39.27,39.27,0,0,0-4.06,0c.67-.88,1.36-1.7,2-2.44Zm-6.08,5.89c-.34.59-.66,1.18-1,1.78-.43-1-.79-2-1.09-3,1-.22,2-.4,3.11-.54C368.92,544.12,368.57,544.7,368.23,545.28Zm1.09,8.77a28,28,0,0,1-3.17-.51c.3-1,.68-2,1.11-3,.31.6.64,1.19,1,1.78S368.94,553.47,369.32,554.05Zm5,4.17c-.69-.76-1.39-1.59-2.06-2.48.65,0,1.32,0,2,0s1.39,0,2.07,0A29.83,29.83,0,0,1,374.35,558.22Zm7-7.76a31.15,31.15,0,0,1,1.15,3,31.74,31.74,0,0,1-3.2.55c.36-.58.71-1.16,1.05-1.75s.68-1.21,1-1.82Zm-2.27,1.08c-.52.91-1.07,1.8-1.65,2.66-1,.08-2.07.11-3.14.11s-2.11,0-3.11-.09q-.9-1.31-1.68-2.67c-.53-.9-1-1.82-1.47-2.76.45-.95.94-1.87,1.46-2.77h0c.52-.91,1.08-1.79,1.67-2.65,1-.08,2.07-.12,3.13-.12s2.11,0,3.13.12q.87,1.29,1.65,2.64c.53.9,1,1.82,1.49,2.75-.46,1-1,1.88-1.48,2.78Zm3-16.38c1.15.66,1.59,3.34.87,6.85l-.15.68a34.85,34.85,0,0,0-4.6-.73,34.77,34.77,0,0,0-2.9-3.62l.79-.73c2.54-2.2,4.91-3.07,6-2.45Z"/><path class="cls-4" d="M374.3,545.68a3.07,3.07,0,1,1-3.07,3.07,3.07,3.07,0,0,1,3.07-3.07"/><ellipse class="cls-8" cx="421.33" cy="575.16" rx="4.25" ry="2.9"/><path d="M425,575.16c-.29,3.16-7.43,3.23-7.43,0s7.14-3.15,7.43,0c.06.69,1.14.69,1.08,0-.42-4.56-9.56-4.65-9.58,0s9.16,4.57,9.58,0C426.18,574.47,425.1,574.48,425,575.16Z"/><ellipse class="cls-8" cx="433.22" cy="579.34" rx="4.25" ry="2.9"/><path d="M436.93,579.34c-.28,3.15-7.42,3.22-7.42,0s7.14-3.16,7.42,0c.07.68,1.14.69,1.08,0-.42-4.57-9.56-4.65-9.58,0s9.16,4.56,9.58,0C438.07,578.65,437,578.65,436.93,579.34Z"/><ellipse class="cls-8" cx="414.23" cy="578.71" rx="4.25" ry="2.9"/><path d="M417.94,578.71c-.28,3.16-7.42,3.23-7.42,0s7.14-3.15,7.42,0c.07.68,1.14.69,1.08,0-.42-4.57-9.56-4.65-9.58,0s9.16,4.57,9.58,0C419.08,578,418,578,417.94,578.71Z"/><ellipse class="cls-8" cx="422.79" cy="578.71" rx="4.25" ry="2.9"/><path d="M426.5,578.71c-.29,3.16-7.43,3.23-7.43,0s7.14-3.15,7.43,0c.06.68,1.14.69,1.08,0-.42-4.57-9.56-4.65-9.58,0s9.16,4.57,9.58,0C427.64,578,426.56,578,426.5,578.71Z"/><ellipse class="cls-8" cx="438.54" cy="584.55" rx="4.25" ry="2.9"/><path d="M442.26,584.55c-.29,3.16-7.43,3.23-7.43,0s7.14-3.15,7.43,0c.06.69,1.13.69,1.07,0-.42-4.56-9.56-4.65-9.58,0s9.16,4.57,9.58,0C443.39,583.86,442.32,583.87,442.26,584.55Z"/><ellipse class="cls-8" cx="428.94" cy="581.01" rx="4.25" ry="2.9"/><path d="M432.66,581c-.29,3.15-7.43,3.22-7.43,0s7.14-3.16,7.43,0c.06.68,1.14.69,1.07,0-.41-4.57-9.56-4.65-9.58,0s9.17,4.56,9.58,0C433.79,580.32,432.72,580.32,432.66,581Z"/><ellipse class="cls-8" cx="412.25" cy="584.55" rx="4.25" ry="2.9"/><path d="M416,584.55c-.29,3.16-7.43,3.23-7.43,0s7.14-3.15,7.43,0c.06.69,1.14.69,1.08,0-.42-4.56-9.56-4.65-9.58,0s9.16,4.57,9.58,0C417.1,583.86,416,583.87,416,584.55Z"/><ellipse class="cls-8" cx="420.49" cy="584.55" rx="4.25" ry="2.9"/><path d="M424.2,584.55c-.28,3.16-7.42,3.23-7.42,0s7.14-3.15,7.42,0c.07.69,1.14.69,1.08,0-.42-4.56-9.56-4.65-9.58,0s9.16,4.57,9.58,0C425.34,583.86,424.27,583.87,424.2,584.55Z"/><ellipse class="cls-8" cx="430.19" cy="584.76" rx="4.25" ry="2.9"/><path d="M433.91,584.76c-.29,3.16-7.43,3.23-7.43,0s7.14-3.15,7.43,0c.06.69,1.14.69,1.07,0-.41-4.56-9.56-4.65-9.58,0s9.17,4.57,9.58,0C435.05,584.07,434,584.08,433.91,584.76Z"/><ellipse class="cls-8" cx="444.19" cy="582.98" rx="4.25" ry="2.9"/><path d="M447.91,583c-.29,3.16-7.43,3.23-7.43,0s7.14-3.15,7.43,0c.06.69,1.14.69,1.07,0-.41-4.57-9.56-4.65-9.58,0s9.17,4.57,9.58,0C449.05,582.29,448,582.3,447.91,583Z"/><path d="M374.8,454.65l-.24-.68,3.39-1.19.24.68Zm6.77-2.37-.24-.68,3.39-1.19.24.68Zm6.77-2.37-.24-.68,3.39-1.19.24.68Zm6.77-2.37-.24-.68,3.39-1.18.24.67Zm6.77-2.37-.24-.68,3.39-1.18.24.67Zm6.77-2.37-.24-.68,3.39-1.18.24.67Zm6.77-2.37-.24-.68,3.39-1.18.24.67Zm6.77-2.37-.24-.68,3.39-1.18.24.67Z"/><path d="M381.2,466.62l-.35-.63,3.16-1.71.34.63Zm6.3-3.42-.34-.63,3.15-1.71.34.63Zm6.31-3.42-.34-.63,3.15-1.71.34.63Zm6.3-3.42-.34-.63,3.15-1.71.35.63Zm6.31-3.41-.34-.64,3.15-1.7.34.63Zm6.3-3.42-.34-.63,3.16-1.71.34.63Zm6.31-3.42-.34-.63,3.15-1.71.34.63Zm6.31-3.42-.35-.63,3.16-1.71.34.63Z"/><path d="M388.83,479.47l-.45-.55,2.77-2.27.46.55Zm5.55-4.54-.45-.56,2.77-2.27.46.56Zm5.55-4.55-.45-.55,2.77-2.27.45.55Zm5.55-4.54-.46-.55L407.8,463l.45.56ZM411,461.3l-.46-.56,2.78-2.27.45.55Zm5.55-4.55-.46-.55,2.78-2.28.45.56Zm5.55-4.54-.46-.56,2.78-2.27.45.55Zm5.55-4.55-.46-.55,2.78-2.28.45.56Z"/><path d="M400.06,491.32l-.57-.44,2.2-2.84.56.44Zm4.39-5.67-.56-.44,2.2-2.83.56.44Zm4.4-5.66-.56-.44,2.2-2.84.56.44Zm4.4-5.67-.56-.44,2.2-2.83.56.44Zm4.4-5.66-.57-.44,2.2-2.84.57.44Zm4.4-5.67-.57-.44,2.2-2.83.57.44Zm4.4-5.67-.57-.44,2.2-2.83.57.44Zm4.4-5.66-.57-.44,2.2-2.83.57.44Z"/><path class="cls-2" d="M456.42,435l5.39,10.13a1,1,0,0,1,.1.37l8.25,62.35c0,.79,1,1.14,1.93.68,0,0,11.87-.16,30.86-10.13,18.19-9.56,24-18.15,24-18.15.9-.46,1.18-1.46.53-2l-48.86-41.73a1,1,0,0,1-.25-.29l-3.67-6.91"/><path d="M456,435.24l4.91,9.24a9.67,9.67,0,0,1,.84,3.52l2.86,21.61,3.54,26.82,1.17,8.86c.16,1.14.05,3.31,1.31,3.83a6.66,6.66,0,0,0,2.53-.15c1.37-.12,2.73-.32,4.08-.57a81.84,81.84,0,0,0,16.46-5.07,112.5,112.5,0,0,0,21.62-11.81,61.2,61.2,0,0,0,10.53-9.08c1.05-1.18,3.3-3.07,2-4.56a32.48,32.48,0,0,0-3.33-2.85l-18-15.33-20.08-17.15-6.15-5.26a10.65,10.65,0,0,1-2.76-3.68l-2.41-4.54c-.33-.62-1.25-.07-.93.54l2.42,4.54a12.77,12.77,0,0,0,1.62,2.8c1,1,2.24,1.9,3.32,2.83l17.28,14.76,19.82,16.93,6.5,5.55a10.13,10.13,0,0,1,1.61,1.37c.44.61.18.82-.35,1.61a31.13,31.13,0,0,1-5.31,5.57,89.82,89.82,0,0,1-16.88,11.5,104.39,104.39,0,0,1-21.11,8.83,51.67,51.67,0,0,1-10.31,2c-.57,0-1.89.19-2.13-.2a4.79,4.79,0,0,1-.19-1.47l-1-7.65-3.35-25.32-3-23c-.21-1.57-.33-3.17-.63-4.72a6.74,6.74,0,0,0-.82-1.94l-2.95-5.54-1.81-3.39c-.32-.61-1.25-.07-.92.54Z"/><path d="M473.85,412.64l5,9.49,1.37,2.59a6.43,6.43,0,0,1,.78,1.49c.11.82-.8.85-1.43,1l-23.25,7.18-10.19,3.15c-.6.18-1.56.74-2.14.29-.35-.26-.64-1.21-.83-1.57l-1.56-2.95c-.42-.79-2.18-3-1.47-3.84a8.81,8.81,0,0,1,2.18-1.12l10.28-5.28L466.44,416l5-2.55c.61-.31,1.89-1.38,2.54-.69.47.5,1.23-.26.76-.77-1.53-1.62-5.11,1.19-6.58,1.94l-12.75,6.56-12.46,6.41c-1.56.8-4.86,1.66-3.84,3.94.87,2,2,3.85,3,5.75.62,1.17,1.08,2.83,2.73,2.53a67.4,67.4,0,0,0,7.53-2.32L479,428.58a13.44,13.44,0,0,0,2.33-.74c1.75-.93.41-2.68-.23-3.88l-6.27-11.87C474.46,411.48,473.53,412,473.85,412.64Z"/><path d="M435.22,443.59l8.89-4.59a.53.53,0,0,0,.19-.73l-4.6-8.66a.54.54,0,0,0-.73-.19l-8.9,4.59a.54.54,0,0,0-.19.73l4.6,8.65c.33.61,1.26.07.93-.54l-4.6-8.65-.19.73,8.89-4.58-.74-.19,4.61,8.65.19-.74-8.89,4.59C434.06,443,434.61,443.9,435.22,443.59Z"/><path d="M445.52,438.6a13.84,13.84,0,0,1,3.53,6.29c1,4.44-.66,9.09-2.44,13.1-.2.44.24,1.07.73.74,3.39-2.3,6.68-5.76,7.91-9.73s.21-9.8-2.69-13a.53.53,0,0,0-.52-.14l-6.28,1.84a.54.54,0,0,0,.29,1l2.47-.73a16.74,16.74,0,0,0,3.37-1c.66-.38.12.17,0-.2a5.49,5.49,0,0,0,.5.69,13.35,13.35,0,0,1,1.77,4.1,12.7,12.7,0,0,1-2.51,11.69,22.83,22.83,0,0,1-4.82,4.49l.73.73c1.84-4.13,3.54-8.78,2.67-13.37a14.61,14.61,0,0,0-3.92-7.32C445.8,437.34,445,438.1,445.52,438.6Z"/><path class="cls-9" d="M514,479.29A168.32,168.32,0,0,1,498.33,490c-9,5.24-20.65,8-20.65,8-1,.5-2.06.15-2.15-.71l-6.64-38.15a1.63,1.63,0,0,1,1-1.5l13.64-7a1.69,1.69,0,0,1,1.81.06l29.32,26.47C515.3,477.71,515,478.79,514,479.29Z"/><path class="cls-4" d="M513.62,478.91A118.52,118.52,0,0,1,496,490.7a79.27,79.27,0,0,1-12.42,5.06,29.65,29.65,0,0,1-6.05,1.73c-1.89.17-1.61-.93-1.84-2.24l-1-5.56-2.82-16.15-2.25-12.92c-.2-1.17-.57-1.74.61-2.57a45.86,45.86,0,0,1,5.26-2.72l6.71-3.46c1-.53,2-1.21,3.05-.47a30.49,30.49,0,0,1,3,2.7l5.12,4.62,13.78,12.44,5.12,4.63c.66.59,3,2,1.41,3-.58.37,0,1.31.54.93,1.53-1,1.47-2.31.27-3.42s-2.35-2.12-3.52-3.18l-12.77-11.53-11.08-10c-.65-.59-1.4-1.52-2.31-1.72-1.53-.33-3.71,1.33-5,2l-7.73,4c-1.39.71-3.84,1.45-3.8,3.35a17.8,17.8,0,0,0,.45,2.61l1.17,6.73,3.11,17.88c.63,3.58,1,7.38,1.9,10.9.51,1.94,2.3,1.33,3.74,1a94.8,94.8,0,0,0,10.13-3.26c8.71-3.33,16.38-8.49,23.81-14.07l1.71-1.31C514.92,479.25,514.16,478.49,513.62,478.91Z"/><path class="cls-4" d="M490.15,471.75l3.43,6.33a7.66,7.66,0,0,1,.76,1.78,2.86,2.86,0,0,1,0,1.36,2.76,2.76,0,0,1-1.49,1.93,3.72,3.72,0,0,1-2,.46l0-1.65a2.12,2.12,0,0,0,1.2-.19,1.06,1.06,0,0,0,.64-1,4.58,4.58,0,0,0-.68-1.9l-3.44-6.33Z"/><path class="cls-4" d="M498.81,468.93l-.81,1.36a2.17,2.17,0,0,0-1.05-.41,1.64,1.64,0,0,0-.93.24,1.68,1.68,0,0,0-.83.9,1.21,1.21,0,0,0,.06,1.08c.26.48.82.67,1.69.58l1.2-.13a4.67,4.67,0,0,1,2.38.23,3,3,0,0,1,1.47,1.4,3.4,3.4,0,0,1,.31,2.72,3.5,3.5,0,0,1-1.77,2.11,3.38,3.38,0,0,1-2.51.38,3.9,3.9,0,0,1-2.17-1.57l1.31-1.14a2.9,2.9,0,0,0,1,1,1.72,1.72,0,0,0,1.67-.09,1.78,1.78,0,0,0,.9-1.08,1.88,1.88,0,0,0-.18-1.42,2,2,0,0,0-.37-.48,1.59,1.59,0,0,0-.48-.31,2.34,2.34,0,0,0-.64-.13,4.44,4.44,0,0,0-.81,0l-1.16.12c-1.65.16-2.77-.31-3.36-1.4a2.65,2.65,0,0,1-.15-2.3,3.48,3.48,0,0,1,1.69-1.89A3.31,3.31,0,0,1,498.81,468.93Z"/></g><text class="cls-10" transform="translate(597.71 538.83)">h<tspan class="cls-11" x="5.68" y="0">tt</tspan><tspan x="12.52" y="0">tp:this is the </tspan><tspan class="cls-12" x="70.44" y="0">c</tspan><tspan x="75.41" y="0">e</tspan><tspan class="cls-13" x="80.9" y="0">r</tspan><tspan x="84.61" y="0">tifica</tspan><tspan class="cls-14" x="106.66" y="0">t</tspan><tspan class="cls-15" x="110.13" y="0">e</tspan><tspan class="cls-16" x="115.42" y="0">.</tspan><tspan class="cls-17" x="117.69" y="0">v</tspan><tspan class="cls-18" x="122.53" y="0">erification/link</tspan></text><g class="cls-19"><g id="houston_simple.eps-copy-3" data-name="houston simple.eps-copy-3"><g class="cls-20"><path id="Fill-1" class="cls-21" d="M757.43,83.08V89H759V83.08h2.17V81.57h-5.93v1.51Zm6.75,2.19a2.22,2.22,0,0,0,2.17,2.34,2.19,2.19,0,0,0,2.15-2.31h0A2.22,2.22,0,0,0,766.33,83a2.19,2.19,0,0,0-2.15,2.31Zm-1.65,0v0a3.81,3.81,0,1,1,7.62,0h0a3.78,3.78,0,0,1-3.82,3.85,3.73,3.73,0,0,1-3.8-3.82Zm-11.21,2.36a3.31,3.31,0,0,1-2.14-.9l-.93,1.15a4.43,4.43,0,0,0,3,1.2c1.55,0,2.63-.83,2.63-2.31v0c0-1.29-.8-1.83-2.26-2.23-1.24-.33-1.54-.49-1.54-1v0c0-.36.31-.64.91-.64a3.28,3.28,0,0,1,1.87.73l.81-1.24a4.05,4.05,0,0,0-2.66-.94,2.27,2.27,0,0,0-2.51,2.24v0c0,1.47.94,1.89,2.37,2.28,1.2.32,1.45.53,1.45.94v0c0,.43-.39.7-1,.7Zm-19.27-2.39a2.22,2.22,0,0,0,2.17,2.34,2.19,2.19,0,0,0,2.15-2.31h0A2.22,2.22,0,0,0,734.2,83a2.19,2.19,0,0,0-2.15,2.31Zm-1.64,0v0a3.81,3.81,0,1,1,7.62,0h0a3.78,3.78,0,0,1-3.82,3.85,3.73,3.73,0,0,1-3.8-3.82Zm12.74,3.81c1.93,0,3.14-1.11,3.14-3.36V81.56h-1.58v4.26c0,1.18-.59,1.78-1.55,1.78s-1.54-.62-1.54-1.83V81.56H740V85.8c0,2.19,1.18,3.31,3.11,3.31Zm-25,3.68h65V78h-65ZM716.6,94.4h68.16v-18H716.6ZM723.91,86h2.91v3h1.57V81.57h-1.57v2.94h-2.91V81.57h-1.57V89h1.57Zm49.83-1.74L777.21,89h1.34V81.57H777v4.58l-3.35-4.58h-1.46V89h1.56V84.28Z"/></g></g></g><path class="cls-22" d="M374.77,138.91a2,2,0,0,1-1.49-.48,1.69,1.69,0,0,1-.46-1.23v-.86a3.1,3.1,0,0,1,.09-.78,3.15,3.15,0,0,1,.23-.59,3.08,3.08,0,0,1,.31-.46l.33-.39a3.23,3.23,0,0,0,.4-.59,1.35,1.35,0,0,0,.11-.52c0-.69-.66-1-2-1h-1.48v-1.51h1.48c1.33,0,2-.34,2-1a1.36,1.36,0,0,0-.11-.53,3.23,3.23,0,0,0-.4-.59l-.33-.39a3.08,3.08,0,0,1-.31-.46,2.9,2.9,0,0,1-.23-.59,3,3,0,0,1-.09-.78v-.86a1.69,1.69,0,0,1,.46-1.23,2,2,0,0,1,1.49-.48h3v1.51h-3.2v1a2.17,2.17,0,0,0,.2,1,6.33,6.33,0,0,0,.48.71,6.27,6.27,0,0,1,.55.77,1.76,1.76,0,0,1,.26,1,1.48,1.48,0,0,1-.5,1.16,2.69,2.69,0,0,1-1.47.56v.1a2.69,2.69,0,0,1,1.47.55,1.49,1.49,0,0,1,.5,1.16,1.82,1.82,0,0,1-.26,1,7.14,7.14,0,0,1-.55.77,6.22,6.22,0,0,0-.48.7,2.18,2.18,0,0,0-.2,1v1h3.2v1.5Z"/><path class="cls-22" d="M382.57,131.23a10.53,10.53,0,0,1,1.06-4.56,9.14,9.14,0,0,1,1.13-1.78,8.7,8.7,0,0,1,1.37-1.35h2.19a10.29,10.29,0,0,0-1.47,1.29,9.15,9.15,0,0,0-1.23,1.61,9,9,0,0,0-.85,1.89,6.85,6.85,0,0,0-.31,2.08v1.64a6.89,6.89,0,0,0,.31,2.08,9.13,9.13,0,0,0,2.08,3.5,10.21,10.21,0,0,0,1.47,1.28h-2.19a7.76,7.76,0,0,1-1.37-1.33,9.62,9.62,0,0,1-1.13-1.8,9.78,9.78,0,0,1-.77-2.15A10,10,0,0,1,382.57,131.23Z"/><path class="cls-22" d="M396.85,131.23a10,10,0,0,1-.29,2.4,9.78,9.78,0,0,1-.77,2.15,9.62,9.62,0,0,1-1.13,1.8,7.76,7.76,0,0,1-1.37,1.33H391.1a10.21,10.21,0,0,0,1.47-1.28,9.13,9.13,0,0,0,2.08-3.5,6.89,6.89,0,0,0,.31-2.08v-1.64a6.85,6.85,0,0,0-.31-2.08,9,9,0,0,0-.85-1.89,9.15,9.15,0,0,0-1.23-1.61,10.29,10.29,0,0,0-1.47-1.29h2.19a8.7,8.7,0,0,1,1.37,1.35,9.14,9.14,0,0,1,1.13,1.78,10.53,10.53,0,0,1,1.06,4.56Z"/><path class="cls-22" d="M411.31,130.32v-1.76h8.14v1.76Zm0,3.78v-1.76h8.14v1.76Z"/><path class="cls-22" d="M422,134.31l5.38-2.91v-.14L422,128.35v-2.09l7.36,4v2.06l-7.36,4Z"/><path class="cls-22" d="M442.34,134.84H445v-5.41h-2.87v-1.71H445v-1.44a3,3,0,0,1,.15-1,1.91,1.91,0,0,1,.45-.75,2.23,2.23,0,0,1,.78-.5,3.06,3.06,0,0,1,1.1-.18h3v1.72h-3.27v2.12h3.27v1.71h-3.27v5.41h2.88v1.71h-7.77Z"/><path class="cls-22" d="M456.42,136.76a6.35,6.35,0,0,1-2.51-.46,4.07,4.07,0,0,1-1.66-1.22l1.28-1.17a3.93,3.93,0,0,0,1.26.93,3.86,3.86,0,0,0,1.65.32,2.76,2.76,0,0,0,1.32-.27.89.89,0,0,0,.49-.84.66.66,0,0,0-.33-.65,3.19,3.19,0,0,0-.88-.26l-1.42-.22a7.57,7.57,0,0,1-1.07-.25,3.35,3.35,0,0,1-.93-.45,2.19,2.19,0,0,1-.64-.74,2.39,2.39,0,0,1-.24-1.11,2.45,2.45,0,0,1,1-2.12,4.85,4.85,0,0,1,2.85-.74,5.89,5.89,0,0,1,2.18.36,3.94,3.94,0,0,1,1.48,1l-1.15,1.27a3.28,3.28,0,0,0-1-.73,3.47,3.47,0,0,0-1.58-.32q-1.68,0-1.68,1.05a.69.69,0,0,0,.34.66,2.76,2.76,0,0,0,.89.26l1.41.23a7.82,7.82,0,0,1,1.09.24,3.17,3.17,0,0,1,.92.46,2.14,2.14,0,0,1,.64.73,2.29,2.29,0,0,1,.24,1.1,2.53,2.53,0,0,1-1.05,2.15A4.85,4.85,0,0,1,456.42,136.76Z"/><path class="cls-22" d="M466.26,123.54a2,2,0,0,1,1.49.48,1.7,1.7,0,0,1,.47,1.23v.86a3,3,0,0,1-.1.78,2.9,2.9,0,0,1-.23.59,2.47,2.47,0,0,1-.31.46l-.32.39a2.9,2.9,0,0,0-.41.59,1.36,1.36,0,0,0-.11.53c0,.68.66,1,2,1h1.49V132h-1.49c-1.33,0-2,.34-2,1a1.35,1.35,0,0,0,.11.52,2.9,2.9,0,0,0,.41.59l.32.39a2.47,2.47,0,0,1,.31.46,3.15,3.15,0,0,1,.23.59,3.08,3.08,0,0,1,.1.78v.86a1.7,1.7,0,0,1-.47,1.23,2,2,0,0,1-1.49.48h-3v-1.5h3.21v-1a2.06,2.06,0,0,0-.21-1,6.22,6.22,0,0,0-.48-.7,8.86,8.86,0,0,1-.55-.77,1.81,1.81,0,0,1-.25-1,1.48,1.48,0,0,1,.49-1.16,2.69,2.69,0,0,1,1.47-.55v-.1a2.69,2.69,0,0,1-1.47-.56,1.47,1.47,0,0,1-.49-1.16,1.75,1.75,0,0,1,.25-1,7.56,7.56,0,0,1,.55-.77,6.33,6.33,0,0,0,.48-.71,2,2,0,0,0,.21-1v-1h-3.21v-1.51Z"/><g class="cls-23"><g class="cls-24"><path class="cls-22" d="M473.15,149H364.47a6,6,0,0,1-6-6V117.3a6,6,0,0,1,6-6H473.15a6,6,0,0,1,6,6V143A6,6,0,0,1,473.15,149ZM364.47,114.73a2.57,2.57,0,0,0-2.57,2.57V143a2.57,2.57,0,0,0,2.57,2.56H473.15a2.56,2.56,0,0,0,2.56-2.56V117.3a2.57,2.57,0,0,0-2.56-2.57Z"/></g></g><g class="cls-25"><g class="cls-24"><path class="cls-22" d="M477.42,153.24H368.74a6,6,0,0,1-6-6V121.57a6,6,0,0,1,6-6H477.42a6,6,0,0,1,6,6v25.68A6,6,0,0,1,477.42,153.24ZM368.74,119a2.56,2.56,0,0,0-2.56,2.56v25.68a2.56,2.56,0,0,0,2.56,2.56H477.42a2.57,2.57,0,0,0,2.57-2.56V121.57a2.57,2.57,0,0,0-2.57-2.56Z"/></g></g><image class="cls-19" width="2536" height="1063" transform="translate(61.43 60.17) scale(0.05)" xlink:href="Logos/HY__LD02_LogoFV_EN_B3____BW.png"/><text class="cls-26" transform="translate(285.95 192.02)">CERTIFICATE OF COMPLETION</text><g class="cls-19"><text class="cls-10" transform="translate(392.38 212.45)">p<tspan class="cls-27" x="5.8" y="0">r</tspan><tspan x="9.42" y="0">esen</tspan><tspan class="cls-28" x="30.95" y="0">t</tspan><tspan x="34.42" y="0">ed </tspan><tspan class="cls-28" x="48.07" y="0">t</tspan><tspan x="51.54" y="0">o</tspan></text></g><text class="cls-29" transform="translate(259.93 307.91)">This is <tspan class="cls-14" x="30.86" y="0">t</tspan><tspan x="34.33" y="0">o </tspan><tspan class="cls-30" x="42.29" y="0">c</tspan><tspan class="cls-31" x="47.26" y="0">e</tspan><tspan class="cls-13" x="52.75" y="0">r</tspan><tspan x="56.46" y="0">ti</tspan><tspan class="cls-32" x="62.47" y="0">f</tspan><tspan class="cls-31" x="65.81" y="0">y that </tspan><tspan class="cls-33" x="93.56" y="0">y</tspan><tspan class="cls-34" x="98.5" y="0">ou h</tspan><tspan class="cls-35" x="117.82" y="0">av</tspan><tspan class="cls-31" x="127.92" y="0">e su</tspan><tspan class="cls-30" x="146.32" y="0">cc</tspan><tspan x="156.26" y="0">e</tspan><tspan class="cls-30" x="161.75" y="0">s</tspan><tspan class="cls-27" x="166.56" y="0">s</tspan><tspan x="171.38" y="0">fu</tspan><tspan class="cls-27" x="180.3" y="0">l</tspan><tspan class="cls-36" x="182.97" y="0">l</tspan><tspan class="cls-31" x="185.59" y="0">y </tspan><tspan class="cls-30" x="192.94" y="0">c</tspan><tspan x="197.91" y="0">omple</tspan><tspan class="cls-14" x="226.25" y="0">t</tspan><tspan class="cls-31" x="229.72" y="0">ed the online </tspan><tspan class="cls-12" x="290.44" y="0">c</tspan><tspan x="295.41" y="0">ourse</tspan></text><text class="cls-29" transform="translate(70 487.65)">Someon<tspan class="cls-37" x="36.91" y="0">e</tspan><tspan class="cls-38" x="42.15" y="0">’</tspan><tspan class="cls-34" x="44.38" y="0">s name</tspan></text><text class="cls-29" transform="translate(70 504.65)">Their <tspan class="cls-39" x="25.42" y="0">c</tspan><tspan x="30.39" y="0">ompa</tspan><tspan class="cls-40" x="55.86" y="0">n</tspan><tspan class="cls-31" x="61.46" y="0">y or title</tspan></text><text class="cls-41" transform="translate(384.09 100.66)"><tspan class="cls-37">F</tspan><tspan x="5.6" y="0">u</tspan><tspan class="cls-35" x="11.56" y="0">l</tspan><tspan class="cls-31" x="14.51" y="0">l </tspan><tspan class="cls-27" x="19.9" y="0">S</tspan><tspan x="26.09" y="0">tack Open</tspan></text><text class="cls-42" transform="translate(323.7 276.19)">M<tspan class="cls-43" x="19.66" y="0">a</tspan><tspan class="cls-44" x="33.17" y="0">t</tspan><tspan class="cls-45" x="42.24" y="0">ti Mekäläinen</tspan></text><text class="cls-46" transform="translate(440.79 354.47)">3</text><text class="cls-47" transform="translate(360.46 359.12)">CRED<tspan class="cls-28" x="26.29" y="0">I</tspan><tspan class="cls-48" x="30.57" y="0">T</tspan><tspan class="cls-31" x="36.29" y="0">S</tspan></text><line class="cls-49" x1="188.07" y1="287.36" x2="653.82" y2="287.36"/><line class="cls-49" x1="70" y1="467.03" x2="221.81" y2="467.03"/><text class="cls-29" transform="translate(597.71 487.65)">Someon<tspan class="cls-37" x="36.91" y="0">e</tspan><tspan class="cls-38" x="42.15" y="0">’</tspan><tspan class="cls-34" x="44.38" y="0">s name</tspan></text><text class="cls-29" transform="translate(597.71 504.65)">Their <tspan class="cls-39" x="25.42" y="0">c</tspan><tspan x="30.39" y="0">ompa</tspan><tspan class="cls-40" x="55.86" y="0">n</tspan><tspan class="cls-31" x="61.46" y="0">y or title</tspan></text><line class="cls-49" x1="597.71" y1="467.03" x2="749.52" y2="467.03"/><text class="cls-46" transform="translate(245.73 354.47)">4</text><text class="cls-47" transform="translate(187.29 359.12)">GRADE</text><line class="cls-49" x1="226.9" y1="360.91" x2="279.07" y2="360.91"/><line class="cls-49" x1="416.24" y1="360.91" x2="472.54" y2="360.91"/><text class="cls-46" transform="translate(623.27 354.47)">-</text><text class="cls-47" transform="translate(563.39 359.12)">E<tspan class="cls-50" x="6.07" y="0">X</tspan><tspan x="12.85" y="0">AM</tspan></text><line class="cls-49" x1="597.52" y1="360.91" x2="653.82" y2="360.91"/><text class="cls-51" transform="translate(70 454.84)">Signature</text><text class="cls-51" transform="translate(597.71 454.84)">Signature</text></svg>