<?xml version="1.0" standalone="no"?>
<!DOCTYPE svg PUBLIC "-//W3C//DTD SVG 20010904//EN"
 "http://www.w3.org/TR/2001/REC-SVG-20010904/DTD/svg10.dtd">
<svg version="1.0" xmlns="http://www.w3.org/2000/svg"
 width="2226.000000pt" height="1012.000000pt" viewBox="0 0 2226.000000 1012.000000"
 preserveAspectRatio="xMidYMid meet">
<metadata>
Created by potrace 1.15, written by Peter Selinger 2001-2017
</metadata>
<g transform="translate(0.000000,1012.000000) scale(0.100000,-0.100000)"
fill="#000000" stroke="none">
<path d="M13010 9510 c-13 -13 -20 -33 -20 -60 0 -57 26 -80 90 -80 64 0 90
23 90 80 0 57 -26 80 -90 80 -37 0 -55 -5 -70 -20z"/>
<path d="M13657 9512 c-24 -26 -23 -104 1 -125 19 -18 106 -24 129 -9 35 22
38 99 6 135 -23 24 -114 24 -136 -1z"/>
<path d="M2504 9512 c-38 -25 -41 -112 -4 -132 31 -17 95 -12 113 8 26 28 22
97 -5 116 -23 17 -85 21 -104 8z"/>
<path d="M2720 9500 c-12 -12 -20 -33 -20 -55 0 -47 29 -75 78 -75 56 0 82 23
82 71 0 52 -27 79 -80 79 -27 0 -47 -7 -60 -20z"/>
<path d="M4380 9120 l0 -400 70 0 70 0 0 98 c0 95 1 99 28 125 15 15 31 27 34
27 4 0 45 -56 93 -125 l86 -125 86 0 c67 0 83 3 76 13 -42 52 -233 319 -233
324 0 4 48 56 107 115 l108 108 -87 0 -86 0 -106 -112 -106 -113 0 233 0 232
-70 0 -70 0 0 -400z"/>
<path d="M5670 9465 l0 -55 90 0 90 0 0 -290 0 -290 -90 0 -90 0 0 -55 0 -55
245 0 245 0 0 55 0 55 -85 0 -85 0 0 345 0 345 -160 0 -160 0 0 -55z"/>
<path d="M6320 9465 l0 -55 85 0 85 0 0 -290 0 -290 -85 0 -85 0 0 -55 0 -55
245 0 245 0 0 55 0 54 -87 3 -88 3 -3 343 -2 342 -155 0 -155 0 0 -55z"/>
<path d="M10558 9353 l-3 -168 -21 36 c-26 44 -77 69 -142 69 -139 0 -212 -97
-212 -284 0 -114 20 -184 65 -235 52 -57 146 -78 219 -47 18 7 47 31 64 52
l32 39 0 -48 0 -47 70 0 70 0 0 400 0 400 -70 0 -70 0 -2 -167z m-29 -199 l31
-26 0 -122 c0 -139 -8 -158 -69 -177 -73 -22 -135 7 -160 74 -15 40 -14 162 3
201 32 77 132 103 195 50z"/>
<path d="M643 9481 c-64 -17 -120 -58 -144 -108 -42 -86 -24 -209 38 -265 28
-25 80 -45 153 -58 131 -23 170 -47 170 -106 0 -76 -45 -114 -134 -114 -67 0
-109 16 -160 60 -36 32 -37 32 -57 14 -12 -11 -30 -32 -41 -47 l-20 -28 28
-30 c101 -106 344 -120 451 -26 49 44 73 98 73 174 0 136 -51 184 -235 222
-117 24 -145 44 -145 104 0 29 7 45 29 68 26 25 37 29 86 29 61 0 117 -19 153
-52 l22 -22 45 44 45 44 -22 23 c-44 47 -121 75 -216 79 -48 2 -101 0 -119 -5z"/>
<path d="M2560 9281 c-46 -14 -88 -40 -109 -68 l-22 -26 33 -34 c37 -39 48
-40 74 -12 24 28 75 49 114 49 65 0 110 -45 110 -110 0 -30 0 -30 -57 -30 -76
0 -178 -17 -214 -35 -106 -55 -100 -227 11 -282 85 -44 208 -20 250 49 l19 32
11 -31 c14 -40 61 -63 129 -63 l51 0 0 55 c0 54 0 55 -29 55 l-29 0 -4 163
c-4 198 -15 229 -100 271 -44 22 -65 26 -132 25 -45 0 -92 -4 -106 -8z m198
-364 c3 -41 -1 -51 -27 -77 -26 -26 -37 -30 -85 -30 -67 0 -96 22 -96 73 0 58
52 87 150 84 l55 -2 3 -48z"/>
<path d="M3215 9278 c-85 -30 -131 -97 -123 -180 9 -93 55 -125 218 -153 128
-22 160 -54 105 -105 -50 -47 -163 -37 -238 22 l-39 30 -40 -38 -39 -39 40
-36 c56 -50 143 -73 250 -67 144 8 221 69 221 175 0 107 -40 141 -204 172 -59
11 -114 26 -122 32 -19 15 -18 63 1 79 19 16 93 24 138 16 19 -4 52 -18 72
-32 l38 -25 38 37 39 38 -22 23 c-37 40 -118 63 -216 62 -48 0 -100 -5 -117
-11z"/>
<path d="M5166 9275 c-114 -40 -182 -189 -156 -338 14 -73 32 -111 73 -155 89
-93 300 -96 399 -4 l39 37 -40 39 -40 39 -30 -26 c-61 -51 -160 -61 -215 -21
-28 21 -62 96 -51 113 4 7 71 11 196 11 l189 0 0 59 c0 161 -98 262 -254 261
-39 -1 -88 -7 -110 -15z m196 -124 c19 -22 28 -42 28 -66 l0 -35 -126 0 -126
0 8 32 c16 76 63 110 138 104 41 -3 55 -9 78 -35z"/>
<path d="M7748 9276 c-98 -35 -139 -106 -118 -200 17 -75 68 -107 206 -129
114 -19 134 -29 134 -67 0 -78 -148 -94 -249 -26 l-48 33 -42 -35 c-41 -33
-41 -35 -24 -54 98 -108 366 -118 460 -16 48 51 57 134 20 189 -30 46 -90 74
-189 89 -45 6 -95 18 -110 26 -37 19 -37 55 0 84 41 33 143 25 203 -14 l43
-29 33 38 c18 21 33 41 33 45 0 13 -76 58 -116 69 -53 15 -191 13 -236 -3z"/>
<path d="M9033 9268 c-11 -13 -25 -32 -31 -43 -10 -18 -11 -15 -12 18 l0 37
-60 0 -60 0 0 -280 0 -280 60 0 60 0 0 219 c0 216 0 220 22 235 31 22 54 20
72 -6 13 -19 16 -59 16 -235 l0 -213 54 0 55 0 3 215 c3 204 4 216 25 236 15
16 28 20 47 15 38 -9 46 -56 46 -273 l0 -193 55 0 55 0 0 228 c0 125 -5 244
-10 264 -14 50 -52 78 -106 78 -57 0 -71 -7 -99 -48 -22 -32 -25 -33 -31 -16
-16 43 -46 64 -94 64 -36 0 -51 -5 -67 -22z"/>
<path d="M9697 9276 c-60 -22 -104 -62 -133 -123 -24 -50 -28 -70 -29 -148 0
-100 21 -164 73 -218 52 -55 98 -72 197 -72 73 0 98 4 130 22 107 57 162 189
136 328 -21 111 -73 180 -160 211 -47 17 -166 17 -214 0z m158 -100 c57 -24
75 -66 75 -174 0 -105 -13 -143 -60 -167 -42 -22 -112 -19 -142 5 -41 31 -50
69 -46 178 3 110 14 132 73 158 39 17 58 17 100 0z"/>
<path d="M10996 9275 c-114 -40 -182 -189 -156 -338 14 -73 32 -111 73 -155
89 -93 300 -96 399 -4 l39 37 -40 39 -40 39 -30 -26 c-61 -51 -160 -61 -215
-21 -28 21 -62 96 -51 113 4 7 71 11 196 11 l189 0 0 59 c0 161 -98 262 -254
261 -39 -1 -88 -7 -110 -15z m196 -124 c19 -22 28 -42 28 -66 l0 -35 -126 0
-126 0 8 32 c16 76 63 110 138 104 41 -3 55 -9 78 -35z"/>
<path d="M12373 9274 c-18 -9 -43 -33 -55 -53 l-23 -36 -3 48 -3 47 -70 0 -69
0 2 -277 3 -278 68 -3 67 -3 0 201 0 202 29 29 c25 24 38 29 78 29 60 0 89
-19 103 -68 5 -20 10 -117 10 -215 l0 -178 68 3 67 3 0 215 c0 211 -1 216 -25
259 -37 66 -69 85 -148 89 -48 2 -76 -2 -99 -14z"/>
<path d="M14312 9270 c-18 -11 -41 -34 -50 -50 -24 -41 -32 -37 -32 15 l0 45
-65 0 -65 0 0 -280 0 -280 65 0 65 0 0 184 c0 202 7 239 51 261 33 17 92 20
120 5 42 -23 49 -58 49 -260 l0 -190 70 0 70 0 0 198 c-1 259 -10 295 -90 350
-44 30 -140 31 -188 2z"/>
<path d="M1090 9275 c0 -3 50 -127 110 -276 l110 -272 -19 -51 -19 -51 -66 -3
-66 -3 0 -54 0 -55 83 0 c97 0 135 18 165 77 19 36 282 680 282 689 0 2 -31 4
-69 4 l-70 0 -22 -57 c-12 -32 -45 -125 -74 -208 -29 -82 -56 -143 -59 -135
-11 31 -128 366 -133 383 -4 14 -18 17 -79 17 -41 0 -74 -2 -74 -5z"/>
<path d="M1752 9267 c2 -8 46 -134 98 -281 l95 -266 85 2 85 3 97 270 c53 149
97 273 98 278 0 4 -31 7 -69 7 l-69 0 -35 -112 c-20 -62 -50 -161 -68 -220
-18 -59 -35 -105 -38 -103 -2 3 -34 101 -71 218 l-66 212 -73 3 c-58 2 -72 0
-69 -11z"/>
<path d="M3722 9063 c3 -211 4 -220 28 -263 60 -108 233 -122 295 -23 11 18
23 32 28 33 4 0 7 -20 7 -45 l0 -45 65 0 65 0 0 280 0 280 -65 0 -65 0 0 -190
c0 -115 -4 -198 -11 -213 -22 -49 -97 -71 -153 -46 -48 22 -56 60 -56 263 l0
186 -71 0 -71 0 4 -217z"/>
<path d="M6962 9063 c3 -211 4 -220 28 -263 60 -108 233 -122 295 -23 11 18
23 32 28 33 4 0 7 -20 7 -45 l0 -45 65 0 65 0 0 280 0 280 -65 0 -65 0 0 -190
c0 -115 -4 -198 -11 -213 -22 -49 -97 -71 -153 -46 -48 22 -56 60 -56 263 l0
186 -71 0 -71 0 4 -217z"/>
<path d="M11510 9225 l0 -55 65 0 65 0 0 -160 c0 -88 0 -163 0 -167 0 -5 -29
-9 -65 -11 l-65 -3 0 -54 0 -55 235 0 235 0 0 55 0 54 -97 3 -98 3 0 115 c0
97 3 119 20 144 26 40 72 56 155 56 l70 0 0 65 0 65 -50 0 c-88 0 -141 -35
-177 -115 l-18 -40 -3 78 -3 77 -134 0 -135 0 0 -55z"/>
<path d="M12830 9225 l0 -55 90 0 90 0 0 -170 0 -170 -90 0 -90 0 0 -55 0 -55
245 0 245 0 0 55 0 55 -85 0 -85 0 0 225 0 225 -160 0 -160 0 0 -55z"/>
<path d="M13470 9225 l0 -55 95 0 95 0 0 -170 0 -170 -95 0 -95 0 0 -55 0 -55
250 0 250 0 0 55 0 55 -85 0 -85 0 0 225 0 225 -165 0 -165 0 0 -55z"/>
<path d="M9770 8330 c-13 -13 -20 -33 -20 -60 0 -57 26 -80 90 -80 64 0 90 23
90 80 0 57 -26 80 -90 80 -37 0 -55 -5 -70 -20z"/>
<path d="M1780 7940 l0 -400 70 0 70 0 0 51 0 52 23 -33 c45 -67 102 -89 192
-75 63 9 117 59 145 131 40 107 24 298 -32 377 -65 92 -247 89 -303 -5 l-20
-33 -3 168 -2 167 -70 0 -70 0 0 -400z m319 45 c43 -22 61 -70 61 -165 0 -45
-5 -91 -11 -103 -34 -65 -90 -89 -160 -68 -61 18 -69 38 -69 171 0 123 9 152
54 170 33 14 94 11 125 -5z"/>
<path d="M5020 8285 l0 -55 90 0 90 0 0 -290 0 -290 -90 0 -90 0 0 -55 0 -55
250 0 250 0 0 55 0 55 -90 0 -90 0 0 345 0 345 -160 0 -160 0 0 -55z"/>
<path d="M5670 8285 l0 -55 90 0 90 0 0 -290 0 -290 -90 0 -90 0 0 -55 0 -55
245 0 245 0 0 55 0 55 -85 0 -85 0 0 345 0 345 -160 0 -160 0 0 -55z"/>
<path d="M7620 7940 l0 -400 70 0 70 0 0 98 c0 95 1 99 28 125 15 15 31 27 34
27 4 0 45 -56 93 -125 l86 -125 86 0 c67 0 83 3 76 13 -42 52 -233 319 -233
324 0 4 48 56 107 115 l108 108 -87 0 -86 0 -106 -112 -106 -113 0 233 0 232
-70 0 -70 0 0 -400z"/>
<path d="M8910 7940 l0 -400 70 0 70 0 0 201 0 201 29 29 c25 24 38 29 78 29
60 0 89 -19 103 -68 5 -20 10 -117 10 -215 l0 -178 68 3 67 3 0 215 c0 211 -1
216 -25 259 -36 64 -69 84 -144 89 -79 5 -126 -15 -158 -67 l-23 -36 -3 168
-2 167 -70 0 -70 0 0 -400z"/>
<path d="M11510 7940 l0 -400 70 0 70 0 0 98 c0 95 1 99 28 125 15 15 31 27
34 27 4 0 45 -56 93 -125 l86 -125 86 0 c67 0 83 3 76 13 -42 52 -233 319
-233 324 0 4 48 56 107 115 l108 108 -87 0 -86 0 -106 -112 -106 -113 0 233 0
232 -70 0 -70 0 0 -400z"/>
<path d="M10340 8210 c0 -106 -4 -110 -104 -110 l-66 0 0 -55 0 -55 80 0 80 0
0 -162 c0 -138 3 -169 19 -205 32 -69 55 -77 213 -81 l138 -4 0 56 0 55 -112
3 -113 3 -3 168 -2 167 115 0 115 0 0 55 0 54 -112 3 -113 3 -3 98 -3 97 -64
0 -65 0 0 -90z"/>
<path d="M18790 8209 c-41 -17 -241 -91 -445 -166 -861 -314 -1301 -476 -1312
-486 -10 -7 -13 -240 -13 -1102 0 -1027 1 -1094 18 -1112 9 -11 158 -73 342
-143 179 -68 327 -124 329 -126 2 -2 -27 -39 -63 -84 l-67 -80 1 -588 c0 -323
-3 -592 -8 -597 -4 -6 -123 -100 -264 -208 l-258 -198 0 -1233 c0 -1162 1
-1234 18 -1248 9 -8 332 -126 717 -262 385 -137 902 -320 1149 -408 l449 -160
31 23 c17 13 306 221 641 462 336 241 616 445 624 452 11 11 13 205 12 1213
l-2 1200 59 69 c32 37 67 74 76 82 10 8 25 28 34 45 16 29 17 122 17 1191 0
656 -4 1170 -9 1182 -8 19 -18 23 -75 25 l-66 3 -2 860 c-2 473 -3 868 -3 877
0 21 34 10 -870 278 -410 122 -777 232 -817 246 -95 32 -150 31 -243 -7z m489
-164 c196 -57 559 -164 807 -238 l452 -133 -437 -146 c-240 -80 -666 -224
-948 -319 l-511 -172 -716 244 c-394 134 -716 247 -716 250 0 3 21 12 48 21
57 19 1421 515 1547 563 50 18 97 34 104 34 8 1 175 -46 370 -104z m1359
-1496 l-3 -1062 -963 -323 c-530 -178 -968 -324 -973 -324 -5 0 -9 433 -9
1058 l0 1058 888 299 c488 164 921 311 962 326 41 16 81 28 88 29 10 0 12
-215 10 -1061z m-2776 659 l738 -253 0 -1062 0 -1063 -62 24 c-297 112 -1366
520 -1393 532 l-35 14 0 1030 c0 567 3 1030 8 1030 4 0 339 -113 744 -252z
m2928 -2511 l-1 -1092 -101 -110 c-56 -61 -227 -247 -381 -414 l-280 -304 6
1046 6 1047 23 33 c12 17 94 118 180 224 l158 191 158 54 157 53 5 146 c5 144
5 146 35 182 17 19 31 36 33 36 1 1 2 -491 2 -1092z m-566 551 c-11 -18 -136
-169 -205 -248 l-57 -66 -344 -3 c-188 -1 -340 0 -337 3 4 4 930 322 947 325
2 1 0 -5 -4 -11z m-2209 -290 l60 -23 -87 -3 c-48 -1 -128 -1 -178 0 l-92 3
42 52 41 52 77 -29 c42 -15 104 -39 137 -52z m405 -154 c52 -20 123 -47 156
-60 l62 -24 177 60 178 60 473 0 474 0 0 -1064 0 -1064 -132 4 c-125 5 -2079
54 -2126 54 l-22 0 0 1035 0 1035 333 0 332 0 95 -36z m-845 -1602 c-5 -5 -79
16 -268 76 l-118 38 193 148 193 148 3 -203 c1 -111 0 -204 -3 -207z m3023
-2208 c-10 -9 -967 -696 -1145 -822 l-33 -23 1 1203 0 1203 52 38 52 39 242
-5 242 -4 298 324 298 324 3 -1132 c2 -898 -1 -1136 -10 -1145z m-3231 2169
l213 -66 0 -199 c0 -196 0 -199 23 -208 12 -5 332 -16 711 -25 l690 -17 160
-52 161 -52 3 -1212 2 -1212 -27 11 c-16 6 -485 173 -1043 371 -558 198 -1039
369 -1067 380 l-53 19 0 1165 c0 640 3 1164 7 1164 4 0 103 -30 220 -67z"/>
<path d="M19330 6842 c-71 -33 -94 -81 -94 -197 -1 -49 3 -111 7 -137 l8 -46
-38 -12 c-126 -41 -236 -128 -249 -196 -15 -83 73 -179 214 -232 l73 -27 -8
-40 c-4 -22 -8 -83 -8 -135 0 -78 4 -102 22 -136 27 -51 79 -79 134 -71 55 7
146 51 211 103 l57 45 58 -47 c100 -82 195 -116 264 -95 30 9 45 22 66 59 26
43 28 55 28 152 0 58 -3 119 -7 136 -7 30 -6 31 72 63 281 115 276 295 -11
407 l-69 27 8 41 c4 23 7 82 7 131 0 105 -24 168 -76 199 -62 37 -171 2 -283
-89 -31 -25 -58 -45 -62 -45 -3 0 -26 18 -52 40 -82 73 -223 126 -272 102z
m135 -81 c33 -15 80 -46 105 -69 l45 -40 -31 -34 c-17 -18 -45 -51 -62 -74
-29 -38 -36 -42 -94 -49 -121 -15 -121 -15 -131 30 -4 22 -7 79 -5 127 3 75 6
90 27 112 32 34 70 33 146 -3z m533 -11 c22 -33 24 -42 20 -147 -2 -62 -7
-115 -10 -118 -7 -7 -166 14 -186 25 -7 3 -37 37 -68 76 l-56 69 47 41 c67 59
141 95 190 92 32 -2 44 -9 63 -38z m-247 -296 c31 -5 41 -15 76 -73 23 -36 50
-85 62 -108 l21 -43 -21 -42 c-12 -24 -39 -73 -62 -109 l-40 -66 -83 -7 c-45
-4 -105 -4 -132 0 l-49 6 -50 87 c-76 128 -75 128 -62 154 6 12 34 61 62 109
l51 87 50 4 c96 6 141 7 177 1z m-454 -124 c37 -98 37 -102 2 -194 -37 -98
-29 -95 -136 -46 -115 53 -168 130 -128 188 34 47 174 124 219 119 13 -1 26
-22 43 -67z m839 43 c88 -36 154 -98 154 -143 0 -26 -9 -42 -42 -73 -43 -41
-120 -82 -174 -93 -29 -6 -30 -5 -63 80 l-34 86 33 85 c19 48 39 85 46 85 8 0
43 -12 80 -27z m-731 -408 c28 -3 59 -8 71 -10 11 -3 49 -38 83 -80 l61 -75
-67 -50 c-69 -51 -136 -80 -182 -80 -34 0 -45 8 -66 50 -15 28 -17 51 -12 136
2 56 8 108 12 114 4 6 17 9 29 7 11 -3 44 -8 71 -12z m605 8 c0 -5 5 -37 10
-73 18 -119 -13 -220 -70 -228 -40 -6 -101 17 -166 63 -90 64 -89 64 -46 117
20 25 46 58 57 73 17 23 32 30 95 40 93 15 120 17 120 8z"/>
<path d="M19588 6333 c-37 -23 -53 -58 -52 -111 1 -39 6 -50 37 -79 30 -27 45
-33 82 -33 37 0 52 6 80 33 86 78 35 208 -82 207 -21 0 -50 -8 -65 -17z"/>
<path d="M17810 3805 l0 -905 23 -4 c12 -3 402 -14 867 -25 465 -12 895 -23
957 -26 61 -3 118 -2 127 1 14 6 16 97 16 935 l0 929 -995 0 -995 0 0 -905z
m1950 -25 l0 -890 -57 0 c-131 -1 -1733 41 -1790 46 l-63 6 0 864 0 864 955 0
955 0 0 -890z"/>
<path d="M19150 3396 c0 -235 -13 -273 -83 -247 -22 9 -29 7 -42 -12 -24 -34
-18 -45 28 -58 53 -14 111 3 141 44 20 26 21 44 24 243 l3 214 -35 0 -36 0 0
-184z"/>
<path d="M19403 3560 c-37 -22 -63 -67 -63 -107 0 -51 34 -91 112 -128 82 -40
108 -65 108 -104 0 -87 -130 -106 -155 -23 -9 32 -11 33 -45 27 -19 -4 -37 -8
-38 -10 -11 -11 24 -78 53 -104 84 -73 210 -42 250 62 14 37 15 51 5 87 -15
54 -46 85 -118 116 -70 31 -92 50 -92 79 0 52 83 75 126 34 22 -21 24 -21 49
-5 21 14 24 20 15 37 -31 57 -143 78 -207 39z"/>
<path d="M1276 8095 c-114 -40 -182 -189 -156 -338 14 -73 32 -111 73 -155 89
-93 300 -96 399 -4 l39 37 -40 39 -40 39 -30 -26 c-61 -51 -160 -61 -215 -21
-28 21 -62 96 -51 113 4 7 71 11 196 11 l189 0 0 59 c0 161 -98 262 -254 261
-39 -1 -88 -7 -110 -15z m196 -124 c19 -22 28 -42 28 -66 l0 -35 -126 0 -126
0 8 32 c16 76 63 110 138 104 41 -3 55 -9 78 -35z"/>
<path d="M2568 8096 c-61 -22 -88 -45 -109 -89 -23 -53 -24 -91 0 -143 24 -53
75 -78 196 -98 112 -18 124 -23 131 -51 25 -98 -173 -114 -274 -22 l-22 21
-40 -39 -40 -39 26 -27 c91 -95 339 -105 438 -19 63 56 70 176 14 227 -36 33
-57 40 -172 62 -116 22 -136 31 -136 65 1 79 140 92 243 22 l28 -19 33 39 c32
37 33 40 18 58 -10 10 -35 28 -57 39 -51 27 -219 35 -277 13z"/>
<path d="M3217 8096 c-60 -22 -104 -62 -133 -123 -24 -50 -28 -70 -29 -148 0
-100 21 -164 73 -218 52 -55 98 -72 197 -72 73 0 98 4 130 22 107 57 162 189
136 328 -21 111 -73 180 -160 211 -47 17 -166 17 -214 0z m158 -100 c57 -24
75 -66 75 -174 0 -105 -13 -143 -60 -167 -42 -22 -112 -19 -142 5 -41 31 -50
69 -46 178 3 110 14 132 73 158 39 17 58 17 100 0z"/>
<path d="M4516 8095 c-114 -40 -182 -189 -156 -338 14 -73 32 -111 73 -155 89
-93 300 -96 399 -4 l39 37 -40 39 -40 39 -30 -26 c-61 -51 -160 -61 -215 -21
-28 21 -62 96 -51 113 4 7 71 11 196 11 l189 0 0 59 c0 161 -98 262 -254 261
-39 -1 -88 -7 -110 -15z m196 -124 c19 -22 28 -42 28 -66 l0 -35 -126 0 -126
0 8 32 c16 76 63 110 138 104 41 -3 55 -9 78 -35z"/>
<path d="M7096 8096 c-22 -8 -55 -31 -75 -50 -31 -32 -35 -42 -39 -98 -6 -112
40 -152 210 -182 110 -19 128 -28 128 -66 0 -82 -162 -92 -262 -17 l-33 25
-37 -32 c-21 -18 -38 -38 -38 -43 0 -20 73 -66 134 -85 48 -16 80 -19 148 -15
150 8 218 58 226 168 8 106 -47 153 -208 179 -94 14 -128 27 -135 51 -7 22 9
55 35 69 47 25 166 4 213 -37 17 -16 20 -15 55 20 44 45 39 59 -33 97 -41 21
-65 25 -149 27 -70 2 -113 -1 -140 -11z"/>
<path d="M8406 8095 c-114 -40 -182 -189 -156 -338 14 -73 32 -111 73 -155 89
-93 300 -96 399 -4 l39 37 -40 39 -40 39 -30 -26 c-61 -51 -160 -61 -215 -21
-28 21 -62 96 -51 113 4 7 71 11 196 11 l189 0 0 59 c0 161 -98 262 -254 261
-39 -1 -88 -7 -110 -15z m196 -124 c19 -22 28 -42 28 -66 l0 -35 -126 0 -126
0 8 32 c16 76 63 110 138 104 41 -3 55 -9 78 -35z"/>
<path d="M12288 8096 c-61 -22 -88 -45 -109 -89 -23 -53 -24 -91 0 -143 24
-53 75 -78 196 -98 112 -18 124 -23 131 -51 25 -98 -173 -114 -274 -22 l-22
21 -40 -39 -40 -39 26 -27 c91 -95 339 -105 438 -19 63 56 70 176 14 227 -36
33 -57 40 -172 62 -116 22 -136 31 -136 65 1 79 140 92 243 22 l28 -19 33 39
c32 37 33 40 18 58 -10 10 -35 28 -57 39 -51 27 -219 35 -277 13z"/>
<path d="M12925 8086 c-61 -28 -87 -56 -117 -121 -33 -73 -33 -217 1 -293 45
-100 145 -149 281 -140 75 6 161 45 188 86 14 22 13 25 -24 63 l-38 39 -31
-29 c-53 -52 -122 -65 -190 -37 -39 17 -75 68 -75 109 l0 27 195 0 195 0 0 49
c0 116 -74 231 -166 259 -69 20 -162 15 -219 -12z m186 -92 c31 -15 59 -66 59
-104 0 -19 -6 -20 -126 -20 l-127 0 6 36 c14 85 109 129 188 88z"/>
<path d="M13590 8097 c-56 -18 -125 -93 -144 -156 -37 -126 -13 -265 59 -336
99 -99 308 -100 403 -2 l32 33 -40 39 -40 39 -22 -21 c-79 -72 -189 -70 -247
3 -12 15 -21 41 -21 60 l0 34 196 0 197 0 -7 67 c-13 125 -74 214 -165 241
-47 15 -154 14 -201 -1z m179 -112 c30 -26 57 -87 46 -105 -4 -6 -55 -10 -126
-10 l-119 0 0 28 c2 93 126 148 199 87z"/>
<path d="M14312 8090 c-18 -11 -41 -34 -50 -50 -24 -41 -32 -37 -32 15 l0 45
-65 0 -65 0 0 -280 0 -280 65 0 65 0 0 184 c0 202 7 239 51 261 33 17 92 20
120 5 42 -23 49 -58 49 -260 l0 -190 70 0 70 0 0 198 c-1 259 -10 295 -90 350
-44 30 -140 31 -188 2z"/>
<path d="M423 8083 c3 -10 20 -136 38 -280 l33 -263 82 0 c70 0 83 3 88 18 2
9 17 96 32 192 15 96 30 181 34 188 4 8 19 -64 34 -160 15 -95 29 -188 33
-205 l5 -33 84 0 c46 0 84 1 84 3 0 2 16 124 35 272 19 149 35 273 35 278 0 4
-24 7 -54 7 l-54 0 -6 -42 c-3 -24 -13 -110 -21 -193 -21 -203 -22 -216 -27
-221 -3 -2 -17 71 -32 163 -15 93 -32 196 -38 231 l-10 62 -63 0 c-57 0 -63
-2 -68 -22 -3 -13 -20 -116 -38 -230 -18 -114 -36 -204 -40 -200 -3 4 -14 88
-23 187 -10 99 -20 199 -23 223 l-6 42 -59 0 c-52 0 -59 -2 -55 -17z"/>
<path d="M3694 8083 c3 -10 48 -135 100 -278 l93 -260 84 -3 84 -3 98 273 c53
150 97 276 97 281 0 4 -31 7 -68 7 l-68 0 -64 -207 c-35 -115 -67 -214 -70
-222 -5 -8 -20 27 -40 90 -17 57 -48 157 -68 222 l-36 117 -74 0 c-65 0 -73
-2 -68 -17z"/>
<path d="M6320 7882 c0 -209 1 -221 23 -262 41 -77 146 -112 231 -76 18 7 47
31 64 52 l32 39 0 -48 0 -47 70 0 70 0 0 280 0 280 -70 0 -70 0 0 -196 c0
-115 -4 -203 -10 -215 -26 -48 -118 -64 -163 -29 -39 31 -47 77 -47 268 l0
172 -65 0 -65 0 0 -218z"/>
<path d="M9590 8045 l0 -55 90 0 90 0 0 -170 0 -170 -90 0 -90 0 0 -55 0 -55
245 0 245 0 0 55 0 55 -85 0 -85 0 0 225 0 225 -160 0 -160 0 0 -55z"/>
<path d="M10810 8095 c0 -3 50 -127 110 -276 l110 -272 -19 -51 -19 -51 -66
-3 -66 -3 0 -54 0 -55 83 0 c97 0 135 18 165 77 19 36 282 680 282 689 0 2
-31 4 -69 4 l-70 0 -22 -57 c-12 -32 -45 -125 -74 -208 -29 -82 -56 -143 -59
-135 -11 31 -128 366 -133 383 -4 14 -18 17 -79 17 -41 0 -74 -2 -74 -5z"/>
<path d="M1157 5873 c-4 -3 -7 -17 -7 -30 0 -21 4 -23 50 -23 l50 0 0 -160 0
-160 -50 0 c-49 0 -50 -1 -50 -30 l0 -30 135 0 135 0 0 29 c0 28 -2 30 -47 33
l-48 3 -3 188 -2 187 -79 0 c-43 0 -81 -3 -84 -7z"/>
<path d="M1507 5873 c-4 -3 -7 -17 -7 -30 0 -21 4 -23 50 -23 l50 0 0 -160 0
-160 -51 0 c-49 0 -50 -1 -47 -27 l3 -28 133 -3 132 -3 0 31 c0 29 -2 30 -45
30 l-45 0 0 190 0 190 -83 0 c-46 0 -87 -3 -90 -7z"/>
<path d="M3614 5867 c-2 -7 -3 -105 -2 -217 l3 -205 38 -3 37 -3 0 54 c0 40 5
58 18 70 18 16 21 14 67 -53 47 -68 49 -70 92 -70 23 0 43 2 43 6 0 3 -25 39
-56 80 -30 42 -58 82 -61 90 -4 10 15 37 53 75 l58 59 -44 0 c-41 0 -49 -5
-107 -62 l-63 -62 0 127 0 127 -35 0 c-20 0 -38 -6 -41 -13z"/>
<path d="M2264 5841 c-63 -28 -83 -105 -45 -167 20 -32 49 -46 123 -59 45 -7
68 -28 68 -60 0 -55 -83 -72 -145 -29 l-39 26 -18 -24 c-21 -28 -19 -36 15
-62 20 -15 47 -21 96 -24 84 -5 132 14 155 63 43 90 -3 164 -113 180 -25 4
-54 14 -63 22 -22 20 -23 56 -2 74 23 19 85 15 118 -6 27 -18 28 -18 49 3 20
21 20 22 2 42 -37 41 -134 51 -201 21z"/>
<path d="M4381 5842 c-48 -24 -69 -57 -82 -127 -20 -110 12 -230 70 -259 16
-9 55 -16 85 -16 47 0 60 4 89 30 42 37 57 86 57 187 0 131 -53 203 -150 203
-19 0 -50 -8 -69 -18z m100 -52 c4 0 16 -14 25 -31 12 -24 15 -53 12 -124 -3
-103 -19 -135 -67 -135 -32 0 -44 8 -60 37 -14 27 -15 198 0 224 12 23 47 40
67 33 8 -2 18 -4 23 -4z"/>
<path d="M6134 5846 c-32 -14 -74 -60 -74 -80 0 -17 64 -40 69 -25 15 46 84
64 114 31 41 -45 8 -100 -122 -207 -56 -46 -61 -53 -59 -85 l3 -35 143 -3 142
-3 0 35 0 35 -94 3 -94 3 70 58 c38 33 78 73 89 90 23 38 25 97 4 136 -27 54
-122 77 -191 47z"/>
<path d="M6479 5837 c-45 -30 -71 -85 -77 -167 -6 -82 17 -166 53 -200 21 -20
39 -25 95 -28 68 -4 71 -3 104 30 20 20 39 53 46 79 17 62 8 187 -16 235 -37
72 -137 97 -205 51z m99 -43 c37 -10 52 -53 52 -152 0 -107 -18 -142 -74 -142
-53 0 -70 28 -75 123 -4 94 10 150 41 165 28 13 28 13 56 6z"/>
<path d="M7182 5841 c-48 -23 -72 -65 -72 -126 0 -100 110 -162 184 -104 14
11 26 16 26 11 0 -22 -63 -100 -109 -136 -28 -21 -51 -40 -51 -42 0 -2 24 -4
54 -4 51 0 57 3 99 45 113 112 129 279 35 348 -39 29 -113 32 -166 8z m122
-62 c52 -41 21 -129 -46 -129 -38 0 -68 32 -68 73 0 37 7 49 35 65 29 17 49
15 79 -9z"/>
<path d="M460 5645 l0 -205 35 0 34 0 3 88 3 87 83 3 82 3 0 29 0 29 -82 3
-83 3 0 50 0 50 93 3 92 3 0 29 0 30 -130 0 -130 0 0 -205z"/>
<path d="M2630 5800 l0 -50 -45 0 c-43 0 -45 -1 -45 -29 0 -28 3 -30 43 -33
l42 -3 5 -102 c6 -131 11 -137 120 -141 l80 -4 0 30 c0 31 0 31 -62 34 l-63 3
0 90 0 90 63 3 c61 3 62 3 62 32 l0 30 -65 0 -65 0 0 50 0 50 -35 0 -35 0 0
-50z"/>
<path d="M6806 5794 c-25 -31 -46 -60 -46 -65 0 -4 10 -15 22 -24 22 -15 25
-13 70 37 l47 53 1 -142 0 -143 -55 0 -55 0 0 -35 0 -35 140 0 140 0 0 35 c0
35 0 35 -45 35 l-45 0 0 170 0 170 -64 0 -64 0 -46 -56z"/>
<path d="M802 5621 c3 -121 5 -131 27 -155 33 -35 103 -37 138 -4 l23 21 0
-21 c0 -19 6 -22 40 -22 l40 0 0 155 0 155 -40 0 -40 0 0 -113 c0 -75 -4 -117
-12 -125 -16 -16 -73 -15 -86 1 -6 7 -13 62 -14 123 l-3 109 -38 3 -39 3 4
-130z"/>
<path d="M2953 5734 c-39 -20 -47 -37 -24 -58 16 -14 21 -14 56 4 55 28 105 8
105 -42 0 -15 -8 -18 -42 -18 -61 0 -115 -17 -133 -43 -23 -33 -19 -84 10
-112 32 -33 114 -36 145 -5 l20 20 20 -20 c12 -12 33 -20 55 -20 32 0 35 3 35
29 0 20 -6 30 -20 34 -18 5 -20 14 -20 92 0 47 -5 95 -10 106 -25 46 -132 65
-197 33z"/>
<path d="M3328 5734 c-87 -46 -90 -222 -6 -274 51 -31 137 -28 177 6 38 32 39
47 5 63 -23 10 -29 9 -46 -9 -24 -26 -72 -26 -98 0 -15 15 -20 33 -20 75 0 42
5 60 20 75 26 26 60 25 94 -1 25 -20 28 -20 51 -5 21 14 23 20 15 36 -25 47
-134 66 -192 34z"/>
<path d="M4667 5743 c-4 -3 -7 -98 -7 -210 l0 -203 40 0 40 0 0 81 0 82 25
-27 c19 -20 33 -26 67 -26 79 0 118 52 118 155 0 103 -39 155 -118 155 -34 0
-48 -6 -67 -26 l-25 -27 0 27 c0 23 -4 26 -33 26 -19 0 -37 -3 -40 -7z m183
-73 c25 -25 28 -114 4 -148 -18 -26 -74 -30 -98 -6 -23 22 -22 131 1 156 21
24 68 23 93 -2z"/>
<path d="M5072 5730 c-41 -26 -62 -73 -62 -143 0 -40 6 -63 23 -88 30 -44 60
-59 125 -59 54 0 82 9 115 38 16 15 16 16 -4 38 l-21 23 -27 -20 c-41 -30 -89
-28 -118 6 -13 15 -22 32 -20 39 2 7 41 12 107 14 l102 3 -4 50 c-8 75 -47
111 -125 116 -46 3 -65 0 -91 -17z"/>
<path d="M5370 5595 l0 -155 40 0 40 0 0 115 c0 103 2 115 19 125 28 14 57 12
75 -6 13 -12 16 -39 16 -125 l0 -109 40 0 40 0 0 115 c0 123 -11 164 -49 185
-31 16 -86 12 -114 -10 -25 -20 -25 -20 -30 0 -4 15 -14 20 -41 20 l-36 0 0
-155z"/>
<path d="M400 3270 l0 -690 1590 0 c1265 0 1590 3 1591 13 1 6 155 163 343
347 187 184 341 337 341 340 0 3 -154 157 -341 343 l-340 337 -1592 0 -1592 0
0 -690z m3480 318 l305 -308 -303 -303 c-166 -166 -302 -310 -302 -320 0 -16
-83 -17 -1560 -17 l-1560 0 0 630 0 630 1558 -2 1557 -1 305 -309z"/>
<path d="M2097 3443 c-4 -3 -7 -80 -7 -170 0 -156 1 -163 20 -163 16 0 20 7
20 38 0 46 25 86 39 62 36 -58 74 -100 91 -100 28 0 25 12 -20 76 -22 32 -40
61 -40 66 0 5 19 29 41 53 l42 45 -31 0 c-23 0 -38 -10 -67 -45 -20 -25 -41
-43 -46 -40 -5 4 -9 46 -9 96 0 67 -3 89 -13 89 -8 0 -17 -3 -20 -7z"/>
<path d="M926 3388 c-80 -216 -95 -269 -80 -275 20 -7 36 9 50 50 10 31 13 32
70 35 l59 3 15 -43 c11 -31 21 -44 38 -46 12 -2 22 0 22 5 0 4 -24 76 -53 158
-49 138 -55 150 -79 153 -22 3 -28 -3 -42 -40z"/>
<path d="M1620 3380 c0 -23 -4 -30 -20 -30 -13 0 -20 -7 -20 -19 0 -10 9 -21
20 -24 18 -5 20 -14 20 -91 0 -76 2 -87 21 -96 30 -17 64 -9 64 15 0 13 -8 21
-23 23 -22 3 -23 7 -20 75 3 66 5 72 26 75 32 5 30 42 -3 42 -21 0 -25 5 -25
30 0 23 -4 30 -20 30 -16 0 -20 -7 -20 -30z"/>
<path d="M1287 3339 c-27 -16 -47 -64 -47 -115 0 -39 5 -51 34 -80 83 -83 195
-4 172 120 -10 51 -50 86 -100 86 -22 0 -49 -5 -59 -11z m97 -45 c22 -21 21
-102 -1 -126 -20 -22 -56 -23 -77 -2 -23 23 -22 120 2 133 25 15 58 13 76 -5z"/>
<path d="M1769 3331 c-20 -16 -22 -21 -10 -35 12 -15 16 -15 31 -1 34 31 101
8 86 -30 -4 -10 -19 -15 -51 -15 -54 0 -85 -25 -85 -70 0 -45 35 -73 85 -66
66 10 69 10 93 2 29 -10 44 21 19 39 -13 9 -17 29 -17 84 0 58 -4 75 -20 91
-27 27 -99 27 -131 1z"/>
<path d="M2310 3255 c0 -88 2 -98 25 -120 25 -26 63 -32 96 -15 13 7 19 7 19
0 0 -5 9 -10 20 -10 19 0 20 7 20 120 0 113 -1 120 -20 120 -17 0 -20 -8 -22
-92 -3 -91 -3 -93 -31 -102 -45 -16 -60 8 -65 109 -4 75 -7 85 -23 85 -17 0
-19 -9 -19 -95z"/>
<path d="M2727 3333 c-19 -23 -23 -41 -14 -75 6 -21 16 -30 50 -39 23 -6 48
-13 55 -15 20 -6 10 -48 -13 -53 -10 -2 -34 5 -52 15 -27 14 -36 15 -46 5 -9
-10 -6 -17 16 -37 51 -44 137 -26 151 32 10 39 -16 70 -71 86 -36 10 -48 18
-48 33 0 25 38 32 72 14 19 -10 26 -10 36 0 9 10 7 16 -12 32 -30 25 -102 26
-124 2z"/>
<path d="M2931 3324 c-44 -57 -16 -97 82 -118 18 -4 27 -13 27 -26 0 -29 -45
-37 -82 -15 -27 16 -32 16 -45 2 -14 -14 -13 -18 18 -36 71 -43 149 -15 149
53 0 40 -13 52 -71 69 -33 10 -44 18 -44 32 0 23 48 34 69 16 14 -12 46 -5 46
10 0 18 -47 39 -86 39 -34 0 -47 -5 -63 -26z"/>
<path d="M1100 1095 c0 -113 2 -135 15 -135 12 0 15 15 15 75 0 64 3 76 20 85
14 8 26 8 40 0 17 -9 20 -21 20 -85 0 -60 3 -75 15 -75 12 0 15 16 15 83 0 51
-5 88 -12 95 -16 16 -70 16 -86 0 -9 -9 -12 0 -12 40 0 40 -4 52 -15 52 -13 0
-15 -22 -15 -135z"/>
<path d="M4120 1178 c0 -40 -3 -49 -12 -40 -22 22 -75 14 -97 -14 -47 -60 -14
-164 53 -164 17 0 37 5 44 12 9 9 12 9 12 0 0 -7 7 -12 15 -12 13 0 15 22 15
135 0 113 -2 135 -15 135 -11 0 -15 -12 -15 -52z"/>
<path d="M5360 1178 c0 -40 -3 -49 -12 -40 -21 21 -85 15 -102 -10 -24 -34
-21 -123 4 -148 22 -22 60 -26 91 -10 13 7 19 7 19 0 0 -5 7 -10 15 -10 13 0
15 22 15 135 0 113 -2 135 -15 135 -11 0 -15 -12 -15 -52z"/>
<path d="M483 1208 c-68 -33 -70 -202 -4 -238 11 -5 36 -10 56 -10 47 0 71 13
90 50 18 35 20 119 3 155 -21 47 -92 68 -145 43z m102 -43 c20 -19 25 -34 25
-73 0 -65 -27 -102 -75 -102 -48 0 -75 37 -75 102 0 57 31 98 75 98 14 0 37
-11 50 -25z"/>
<path d="M2480 1088 c0 -107 2 -128 15 -128 12 0 15 13 15 55 0 54 1 55 28 55
24 0 32 -8 55 -55 20 -40 32 -55 48 -55 20 0 19 2 -8 54 l-29 53 23 21 c28 25
31 81 6 105 -12 10 -42 16 -86 19 l-67 3 0 -127z"/>
<path d="M3580 1085 c0 -102 3 -125 14 -125 11 0 16 15 18 53 3 48 5 52 30 55
25 3 31 -3 55 -52 18 -37 33 -56 45 -56 23 0 23 1 -8 61 l-25 51 20 15 c16 10
21 25 21 57 0 23 -5 47 -12 54 -7 7 -42 12 -85 12 l-73 0 0 -125z"/>
<path d="M4790 1085 c0 -103 3 -125 15 -125 11 0 15 20 17 97 l3 97 55 -95
c31 -52 63 -95 73 -97 15 -3 17 8 17 122 0 108 -2 126 -16 126 -13 0 -15 -14
-12 -95 2 -52 1 -95 -2 -95 -3 0 -29 43 -59 95 -38 68 -58 95 -72 95 -18 0
-19 -9 -19 -125z"/>
<path d="M6180 1085 c0 -103 3 -125 15 -125 11 0 15 20 17 103 l3 102 42 -74
41 -74 39 74 38 74 3 -102 c2 -83 6 -103 17 -103 12 0 15 22 15 125 0 124 0
125 -23 125 -19 0 -29 -12 -52 -60 -16 -33 -32 -60 -37 -60 -4 0 -21 27 -38
60 -25 49 -35 60 -55 60 l-25 0 0 -125z"/>
<path d="M7270 1085 l0 -125 55 0 c103 0 141 42 133 145 -7 83 -32 105 -120
105 l-68 0 0 -125z m142 75 c12 -15 18 -39 18 -72 0 -65 -30 -98 -90 -98 l-40
0 0 93 c0 52 3 97 8 101 14 15 86 -2 104 -24z"/>
<path d="M7510 1085 l0 -125 70 0 c57 0 74 4 90 20 24 24 27 82 5 100 -11 9
-13 16 -5 24 14 14 13 79 -2 94 -7 7 -42 12 -85 12 l-73 0 0 -125z"/>
<path d="M6980 1160 c0 -5 -14 -10 -31 -10 -51 0 -69 -16 -69 -60 0 -21 5 -42
10 -45 8 -5 7 -11 -1 -21 -6 -8 -9 -23 -6 -34 3 -11 1 -23 -4 -26 -15 -9 -10
-61 7 -68 9 -3 40 -6 69 -6 60 0 85 16 85 55 0 30 -26 45 -79 45 -22 0 -43 5
-46 11 -10 15 -2 20 36 24 58 7 79 49 54 108 -5 12 -3 17 9 17 9 0 16 5 16 10
0 6 -11 10 -25 10 -14 0 -25 -4 -25 -10z"/>
<path d="M826 1131 c-23 -26 -2 -39 25 -15 16 14 24 15 44 6 15 -7 25 -20 25
-32 0 -16 -7 -20 -36 -20 -53 0 -74 -15 -74 -53 0 -41 15 -57 55 -57 17 0 36
5 43 12 9 9 15 9 24 0 17 -17 38 -15 38 3 0 8 -4 15 -10 15 -6 0 -10 28 -10
64 0 45 -5 69 -16 80 -22 23 -87 21 -108 -3z"/>
<path d="M1306 1131 c-23 -26 -2 -39 25 -15 16 14 24 15 44 6 15 -7 25 -20 25
-32 0 -16 -7 -20 -36 -20 -53 0 -74 -15 -74 -53 0 -41 15 -57 55 -57 17 0 36
5 43 12 9 9 15 9 24 0 17 -17 38 -15 38 3 0 8 -4 15 -10 15 -6 0 -10 28 -10
64 0 45 -5 69 -16 80 -22 23 -87 21 -108 -3z"/>
<path d="M2711 1124 c-14 -18 -21 -41 -21 -69 0 -59 29 -95 79 -95 46 0 77 20
67 45 -6 16 -8 17 -24 1 -35 -31 -92 -15 -92 26 0 15 9 18 65 18 62 0 65 1 65
24 0 13 -9 35 -21 50 -29 37 -89 37 -118 0z"/>
<path d="M2905 1137 c-29 -22 -9 -40 21 -20 31 20 74 5 74 -27 0 -17 -7 -20
-40 -20 -67 0 -103 -56 -62 -93 22 -20 73 -22 90 -5 9 9 15 9 24 0 17 -17 38
-15 38 3 0 8 -4 15 -10 15 -6 0 -10 28 -10 63 0 49 -4 68 -18 80 -22 20 -81
22 -107 4z"/>
<path d="M3832 1143 c-18 -7 -42 -57 -42 -88 0 -33 24 -81 45 -89 31 -12 73
-6 96 13 31 25 16 40 -19 19 -29 -17 -58 -11 -81 15 -21 27 -3 37 65 37 l66 0
-7 33 c-10 47 -32 67 -74 66 -20 0 -42 -3 -49 -6z"/>
<path d="M5062 1143 c-18 -7 -42 -57 -42 -88 0 -33 24 -81 45 -89 66 -25 125
16 125 87 0 62 -29 97 -78 96 -20 0 -43 -3 -50 -6z"/>
<path d="M5468 1139 c-21 -12 -39 -74 -31 -108 10 -44 42 -71 83 -71 41 0 82
32 63 51 -7 7 -14 5 -23 -6 -15 -18 -61 -20 -78 -3 -7 7 -12 20 -12 30 0 15 9
18 65 18 62 0 65 1 65 24 0 41 -36 76 -78 76 -20 0 -45 -5 -54 -11z"/>
<path d="M6481 1124 c-31 -39 -29 -107 4 -139 24 -25 65 -32 100 -19 21 8 45
56 45 89 0 33 -24 81 -45 89 -39 15 -83 6 -104 -20z"/>
<path d="M7088 1139 c-21 -12 -39 -74 -31 -108 10 -44 42 -71 84 -71 50 0 79
35 79 95 0 59 -30 95 -78 95 -20 0 -45 -5 -54 -11z"/>
<path d="M7926 1131 c-23 -26 -2 -39 25 -15 16 14 24 15 44 6 15 -7 25 -20 25
-32 0 -16 -7 -20 -36 -20 -53 0 -74 -15 -74 -53 0 -18 5 -38 12 -45 16 -16 70
-16 86 0 9 9 15 9 24 0 17 -17 38 -15 38 3 0 8 -4 15 -10 15 -6 0 -10 28 -10
64 0 45 -5 69 -16 80 -22 23 -87 21 -108 -3z"/>
<path d="M1220 555 c0 -113 2 -135 15 -135 12 0 15 15 15 75 0 72 1 76 26 87
41 19 64 -16 64 -98 0 -50 3 -64 15 -64 12 0 15 14 15 68 0 86 -15 116 -58
120 -18 2 -40 -2 -48 -9 -12 -10 -14 -4 -14 40 0 39 -4 51 -15 51 -13 0 -15
-22 -15 -135z"/>
<path d="M468 651 c-27 -24 -32 -36 -36 -88 -5 -65 13 -114 47 -133 25 -13 77
-13 102 0 13 7 19 7 19 0 0 -5 7 -10 15 -10 12 0 15 14 15 65 l0 65 -40 0
c-22 0 -40 -4 -40 -10 0 -5 11 -10 25 -10 21 0 25 -5 25 -30 0 -33 -22 -50
-69 -50 -43 0 -71 40 -71 102 0 84 64 124 124 77 28 -22 49 -18 39 7 -8 21
-56 44 -92 44 -20 0 -42 -10 -63 -29z"/>
<path d="M1471 666 c-35 -19 -50 -54 -50 -116 -1 -68 15 -101 56 -120 22 -10
33 -22 33 -36 0 -12 7 -25 16 -28 28 -11 54 -6 54 9 0 8 -9 15 -20 15 -31 0
-24 23 11 39 42 18 62 69 57 140 -4 45 -10 59 -37 83 -35 31 -80 36 -120 14z
m89 -26 c42 -22 50 -131 13 -172 -9 -10 -30 -18 -49 -18 -46 0 -74 38 -74 102
0 75 53 118 110 88z"/>
<path d="M2063 673 c-10 -4 -13 -38 -13 -129 0 -104 2 -124 15 -124 11 0 15
11 15 43 0 31 6 49 19 61 19 17 21 15 60 -43 28 -41 48 -61 62 -61 23 0 24 -2
-38 86 l-42 60 45 52 c42 48 44 52 22 51 -16 0 -38 -19 -73 -62 l-50 -61 -5
65 c-4 47 -9 65 -17 62z"/>
<path d="M6243 665 c-17 -12 -23 -26 -23 -54 0 -41 10 -54 50 -65 62 -18 80
-29 80 -50 0 -12 -5 -27 -12 -34 -17 -17 -68 -15 -90 5 -15 13 -21 14 -31 4
-20 -20 27 -51 77 -51 59 0 86 22 86 69 0 45 -14 59 -78 81 -49 16 -64 39 -42
65 17 20 59 19 82 -2 14 -13 21 -14 30 -5 35 35 -86 69 -129 37z"/>
<path d="M826 591 c-23 -26 -2 -39 25 -15 16 14 24 15 44 6 15 -7 25 -20 25
-32 0 -16 -7 -20 -36 -20 -53 0 -74 -15 -74 -53 0 -18 5 -38 12 -45 16 -16 70
-16 86 0 9 9 15 9 24 0 17 -17 38 -15 38 3 0 8 -4 15 -10 15 -6 0 -10 28 -10
64 0 45 -5 69 -16 80 -22 23 -87 21 -108 -3z"/>
<path d="M1010 480 c0 -109 2 -130 15 -130 11 0 15 12 15 47 0 37 3 44 12 35
22 -22 75 -14 97 14 33 42 25 131 -13 156 -17 12 -71 9 -84 -4 -9 -9 -12 -9
-12 0 0 7 -7 12 -15 12 -13 0 -15 -21 -15 -130z"/>
<path d="M3246 591 c-23 -26 -2 -39 25 -15 16 14 24 15 44 6 15 -7 25 -20 25
-32 0 -16 -7 -20 -36 -20 -53 0 -74 -15 -74 -53 0 -18 5 -38 12 -45 16 -16 70
-16 86 0 9 9 15 9 24 0 17 -17 38 -15 38 3 0 8 -4 15 -10 15 -6 0 -10 28 -10
64 0 45 -5 69 -16 80 -22 23 -87 21 -108 -3z"/>
<path d="M4816 591 c-23 -26 -2 -39 25 -15 16 14 24 15 44 6 15 -7 25 -20 25
-32 0 -16 -7 -20 -36 -20 -53 0 -74 -15 -74 -53 0 -18 5 -38 12 -45 16 -16 70
-16 86 0 9 9 15 9 24 0 17 -17 38 -15 38 3 0 8 -4 15 -10 15 -6 0 -10 28 -10
64 0 45 -5 69 -16 80 -22 23 -87 21 -108 -3z"/>
<path d="M5010 595 c-20 -24 -2 -35 29 -17 24 14 32 14 45 3 32 -27 20 -48
-30 -54 -52 -5 -65 -19 -62 -62 4 -38 43 -55 88 -38 18 7 32 7 36 2 9 -15 34
-10 34 6 0 8 -4 15 -10 15 -6 0 -10 30 -10 70 0 58 -3 71 -19 80 -29 15 -87
12 -101 -5z"/>
<path d="M5675 597 c-29 -22 -9 -40 21 -20 31 20 74 5 74 -27 0 -17 -7 -20
-40 -20 -67 0 -103 -56 -62 -93 22 -20 73 -22 90 -5 9 9 15 9 24 0 17 -17 38
-15 38 3 0 8 -4 15 -10 15 -6 0 -10 28 -10 63 0 49 -4 68 -18 80 -22 20 -81
22 -107 4z"/>
<path d="M6036 591 c-23 -26 -2 -39 25 -15 16 14 24 15 44 6 15 -7 25 -20 25
-32 0 -16 -7 -20 -36 -20 -53 0 -74 -15 -74 -53 0 -18 5 -38 12 -45 16 -16 70
-16 86 0 9 9 15 9 24 0 17 -17 38 -15 38 3 0 8 -4 15 -10 15 -6 0 -10 28 -10
64 0 45 -5 69 -16 80 -22 23 -87 21 -108 -3z"/>
<path d="M6840 480 c0 -80 4 -130 10 -130 6 0 10 20 10 45 0 42 11 58 25 35 8
-13 51 -13 75 0 41 22 49 121 12 163 -18 20 -82 23 -100 5 -9 -9 -12 -9 -12 0
0 7 -4 12 -10 12 -6 0 -10 -50 -10 -130z"/>
<path d="M7460 595 c-20 -24 -2 -35 29 -17 24 14 32 14 45 3 32 -27 20 -48
-30 -54 -52 -5 -65 -19 -62 -62 4 -38 43 -55 88 -38 18 7 32 7 36 2 9 -15 34
-10 34 6 0 8 -4 15 -10 15 -6 0 -10 30 -10 70 0 58 -3 71 -19 80 -29 15 -87
12 -101 -5z"/>
</g>
</svg>
